<?xml version="1.0" standalone="no"?>
<!DOCTYPE svg PUBLIC "-//W3C//DTD SVG 1.1//EN" "http://www.w3.org/Graphics/SVG/1.1/DTD/svg11.dtd" >
<svg xmlns="http://www.w3.org/2000/svg">
  <metadata>Created by iconfont</metadata>
  <defs>
  <font id="iconfont" horiz-adv-x="1024">
    <font-face
      font-family="iconfont"
      font-weight="400"
      font-stretch="normal"
      units-per-em="1024"
      ascent="896"
      descent="-128"
    />
      <missing-glyph />
      
      <glyph glyph-name="close-circle-line" unicode="&#58888;" d="M512 810.666667c235.648 0 426.666667-191.018667 426.666667-426.666667s-191.018667-426.666667-426.666667-426.666667S85.333333 148.352 85.333333 384 276.352 810.666667 512 810.666667z m0-85.333334a341.333333 341.333333 0 1 1 0-682.666666 341.333333 341.333333 0 0 1 0 682.666666zM421.504 534.869333L512 444.330667l90.496 90.538666a42.666667 42.666667 0 1 0 60.373333-60.373333l-90.538666-90.453333 90.538666-90.538667a42.666667 42.666667 0 0 0-60.373333-60.373333L512 323.669333l-90.496-90.538666a42.666667 42.666667 0 0 0-60.373333 60.373333L451.669333 384 361.173333 474.496a42.666667 42.666667 0 0 0 60.330667 60.373333z"  horiz-adv-x="1024" />
      
      <glyph glyph-name="download-2-fill" unicode="&#58886;" d="M170.666667 85.333333h682.666666v298.666667h85.333334v-341.333333a42.666667 42.666667 0 0 0-42.666667-42.666667H128a42.666667 42.666667 0 0 0-42.666667 42.666667v341.333333h85.333334v-298.666667zM597.333333 512h213.333334l-298.666667-298.666667-298.666667 298.666667h213.333334V768h170.666666v-256z"  horiz-adv-x="1024" />
      
      <glyph glyph-name="upload-2-fill" unicode="&#58887;" d="M170.666667 85.333333h682.666666v298.666667h85.333334v-341.333333a42.666667 42.666667 0 0 0-42.666667-42.666667H128a42.666667 42.666667 0 0 0-42.666667 42.666667v341.333333h85.333334v-298.666667zM597.333333 512v-256h-170.666666V512H213.333333l298.666667 298.666667 298.666667-298.666667h-213.333334z"  horiz-adv-x="1024" />
      
      <glyph glyph-name="config" unicode="&#58885;" d="M928 200.21333332999995H580.58666667c-7.78666667 0-14.29333333 6.29333333-14.4 14.08v33.38666667c0.10666667 7.78666667 6.50666667 14.18666667 14.4 14.08H928c7.78666667 0 14.18666667-6.29333333 14.29333333-14.08v-33.38666667c-0.10666667-7.78666667-6.4-14.18666667-14.29333333-14.08z m0-123.41333333H580.58666667c-7.78666667 0-14.29333333 6.29333333-14.4 14.08v33.38666667c0.10666667 7.78666667 6.50666667 14.18666667 14.4 14.08H928c7.78666667 0 14.18666667-6.29333333 14.29333333-14.08v-33.28c-0.10666667-7.78666667-6.4-14.18666667-14.29333333-14.18666667z m0-123.41333333H580.58666667c-7.78666667 0-14.29333333 6.29333333-14.4 14.08v33.38666666c0.10666667 7.78666667 6.50666667 14.18666667 14.4 14.08H928c7.78666667 0 14.18666667-6.29333333 14.29333333-14.08v-33.28c-0.10666667-7.89333333-6.4-14.08-14.29333333-14.18666666zM503.46666667 267.30666667v-62.61333334c-101.22666667 0-183.57333333 81.06666667-183.57333334 180.69333334S402.24 566.0799999999999 503.46666667 566.0799999999999c101.22666667 0 183.57333333-81.06666667 183.57333333-180.69333333 0-21.12-3.62666667-42.02666667-10.98666667-61.76h-70.61333333c11.73333333 18.45333333 17.92 39.89333333 17.92 61.76 0 64.96-53.86666667 117.86666667-120 117.86666666-66.02666667 0-119.89333333-52.90666667-119.89333333-117.86666666 0.10666667-65.17333333 53.86666667-118.08 120-118.08z m-15.14666667-251.09333334c3.94666667 0.10666667 7.78666667-1.49333333 10.77333333-4.26666666 2.77333333-2.77333333 4.48-6.72 4.48-10.66666667v-32.85333333c-0.10666667-8.21333333-6.82666667-14.93333333-15.14666666-14.93333334h-59.84c-28.48-0.32-52.26666667 21.97333333-53.76 50.34666667l-8.74666667 63.36c-26.24 10.98666667-50.98666667 24.96-73.81333333 41.81333333l-59.94666667-24.10666666c-25.49333333-12.90666667-56.64-3.94666667-71.25333333 20.58666666l-75.2 127.68c-14.4 24.42666667-6.72 56 17.49333333 71.04l51.41333333 39.14666667a315.2 315.2 0 0 0 0 83.84L103.46666667 466.34666667c-24 14.93333333-31.78666667 46.29333333-17.6 70.72l75.09333333 127.89333333c14.61333333 24.53333333 45.65333333 33.49333333 71.14666667 20.69333333l60.05333333-24.10666666c22.72 16.96 47.68 30.93333333 73.81333333 41.81333333l8.74666667 63.25333333c1.49333333 28.48 25.17333333 50.77333333 53.65333333 50.45333334h150.08c28.8 0 52.37333333-22.08 53.65333334-50.34666667l8.74666666-63.36c26.24-10.88 51.09333333-24.96 73.92-41.81333333l60.05333334 24c25.49333333 12.69333333 56.53333333 3.84 71.14666666-20.58666667l74.88-127.78666667c14.4-24.42666667 6.82666667-55.89333333-17.38666666-71.04l-51.2-39.04c3.62666667-27.84 3.62666667-56.10666667 0-83.84l25.92-19.73333333h-93.76l2.24 11.84c6.29333333 32.85333333 6.29333333 66.88 0 99.84l-3.41333334 18.56 78.29333334 59.62666667-66.98666667 114.24-90.66666667-38.29333334-14.82666666 12.48c-26.13333333 21.65333333-55.89333333 38.50666667-87.89333334 49.70666667l-18.02666666 6.50666667-13.54666667 96.32H437.22666667l-13.33333334-96.53333334-18.02666666-6.50666666c-32.10666667-11.30666667-61.86666667-28.16-88-49.81333334l-14.72-12.26666666-91.52 36.90666666-66.24-112.64 78.29333333-59.62666666-3.41333333-18.66666667c-3.09333333-16.42666667-4.69333333-33.06666667-4.8-49.81333333 0.10666667-16.74666667 1.70666667-33.49333333 4.69333333-49.92l3.30666667-18.66666667-78.18666667-59.62666667 67.2-114.24 90.56 38.29333334 14.93333333-12.37333334c26.13333333-21.65333333 55.89333333-38.50666667 87.89333334-49.70666666l18.02666666-6.50666667 13.33333334-96.53333333h51.09333333z m0 0"  horiz-adv-x="1024" />
      
      <glyph glyph-name="general" unicode="&#58921;" d="M503 346.3125a237.9375 237.9375 0 1 0 237.375 237.9375 238.5 238.5 0 0 0-237.375-237.9375z m0 420.1875a182.8125 182.8125 0 1 1 182.8125-182.25A182.25 182.25 0 0 1 503 766.5zM609.3125-53.625H109.8125v61.3125a393.75 393.75 0 0 0 393.75 393.75 27.5625 27.5625 0 0 0 0-56.25 337.5 337.5 0 0 1-337.5-337.5v-6.75h443.25a27 27 0 0 0 27-27.5625 26.4375 26.4375 0 0 0-27-27zM887.1875 192.75H624.5a28.6875 28.6875 0 0 0-25.875 18.5625 29.25 29.25 0 0 0 9.5625 30.9375l81.5625 61.3125a27 27 0 0 0 38.25-5.0625 27.5625 27.5625 0 0 0-5.0625-38.25l-16.875-12.375h183.375a27.5625 27.5625 0 0 0 0-56.25zM805.625 38.0625a28.6875 28.6875 0 0 0-21.9375 10.6875 27 27 0 0 0 5.625 38.25l16.3125 12.9375H624.5a27 27 0 0 0-27 27 27.5625 27.5625 0 0 0 27 27.5625h264.9375a27 27 0 0 0 25.875-18.5625 26.4375 26.4375 0 0 0-9.5625-33.1875l-81.5625-61.875a25.3125 25.3125 0 0 0-18.5625-2.8125z"  horiz-adv-x="1024" />
      
      <glyph glyph-name="advanced" unicode="&#58987;" d="M338.26690123 646.5006227700001a26.78561384 26.78561384 0 0 1 26.78561384 26.78561384V785.78581474a26.78561384 26.78561384 0 0 1-53.57122768 0v-112.49957813a26.78561384 26.78561384 0 0 1 26.78561383-26.78561384zM136.9997991 702.99148242h120.91026061v53.57122768H116.10702065A32.73201981 32.73201981 0 0 1 83.42857143 723.88426089V-11.889765069999953A32.73201981 32.73201981 0 0 1 116.10702065-44.568214290000014h342.61478655v53.57122768H136.9997991zM907.88976507 756.5627101h-141.80303906v-53.57122768H886.99698661v-270.93648381h53.57122768V723.85747517a32.73201981 32.73201981 0 0 1-32.67844921 32.67844921zM418.62374275 756.5627101h186.74930022v-53.57122768h-186.74930023zM685.7298845 646.5006227700001a26.78561384 26.78561384 0 0 1 26.78561383 26.78561384V785.78581474a26.78561384 26.78561384 0 0 1-53.57122768 0v-112.49957813a26.78561384 26.78561384 0 0 1 26.78561385-26.78561384zM244.16904018 405.10867049h53.57122768v-304.3649297h-53.57122768zM566.31961803 488.25121623h53.57122767v-159.34761662h-53.57122767zM404.88272322 582.8847899h53.57122767v-482.14104911h-53.57122768zM726.36366072 555.05453738h53.57122767v-143.7583895h-53.57122767zM935.26466294 97.12768275999997l-35.67843749 20.59813728a117.56205888 117.56205888 0 0 1-0.37499916 47.06232338l35.54450977 20.51778014a10.63388839 10.63388839 0 0 1 3.85712862 14.51780272l-39.32128125 68.11581613a10.63388839 10.63388839 0 0 1-14.51780275 3.88391434l-36.7766476-21.21420619a142.55303656 142.55303656 0 0 1-39.85699385 23.00884235v41.86591406a10.63388839 10.63388839 0 0 1-10.60710267 10.60710268h-78.66934822a10.63388839 10.63388839 0 0 1-10.6338884-10.60710268v-41.86591406a142.57982226 142.57982226 0 0 1-40.31234932-23.35705581l-35.78557953 20.67849442a10.63388839 10.63388839 0 0 1-14.51780273-3.88391433l-39.32128125-68.14260184a10.60710268 10.60710268 0 0 1 3.88391434-14.51780273l34.87486859-20.1159961a120.69597572 120.69597572 0 0 1-0.13392775-48.29446122l-34.23201478-19.76778349a10.63388839 10.63388839 0 0 1-3.8839135-14.49101701l39.32128125-68.14260185a10.63388839 10.63388839 0 0 1 14.51780273-3.88391349l34.28558537 19.76778264a142.66017941 142.66017941 0 0 1 42.34805526-24.48205078v-38.94628293a10.60710268 10.60710268 0 0 1 10.60710352-10.60710268H798.60446093a10.60710268 10.60710268 0 0 1 10.60710269 10.60710268v39.61592327a142.82089286 142.82089286 0 0 1 41.51770145 24.91062054l34.58022823-19.98206753a10.63388839 10.63388839 0 0 1 14.51780274 3.88391434l39.34806612 68.14260102a10.60710268 10.60710268 0 0 1-3.8839135 14.51780273z m-177.10647907-47.73196373a90.05323409 90.05323409 0 1 0 90.05323411 90.08001897 90.16037612 90.16037612 0 0 0-90.05323411-90.08001897z"  horiz-adv-x="1024" />
      
      <glyph glyph-name="zhankai" unicode="&#59065;" d="M514.92571429 130.43809524000005c-13.65333333 0-27.30666667 5.36380952-38.03428572 15.60380952L90.20952381 531.7485714300001c-20.96761905 20.96761905-20.96761905 55.10095238 0 76.06857143 20.96761905 20.96761905 55.10095238 20.96761905 76.06857143 0l349.13523809-348.16L863.08571429 608.79238095c20.96761905 20.96761905 55.10095238 20.96761905 76.06857142 0 20.96761905-20.96761905 20.96761905-55.10095238 0-76.06857143l-386.19428571-387.16952381c-10.24-10.24-24.38095238-15.11619048-38.03428571-15.11619047z"  horiz-adv-x="1024" />
      
      <glyph glyph-name="link" unicode="&#58998;" d="M885.19111147 754.9155552c-93.29777813 93.29777813-245.76 95.57333333-341.33333334 2.27555627l-72.81777813-72.81777814c-13.65333333-13.65333333-13.65333333-34.13333333 0-47.78666666s34.13333333-13.65333333 47.78666667 0l72.81777813 72.81777813c68.26666667 65.99111147 177.49333333 65.99111147 245.76-2.27555627 68.26666667-68.26666667 68.26666667-179.76888853 2.2755552-248.0355552l-125.1555552-127.43111146c-36.40888853-36.40888853-86.47111147-54.61333333-136.53333333-52.33777707-50.06222187 4.55111147-97.84888853 29.58222187-127.43111147 70.54222187-11.37777813 15.92888853-31.85777813 18.2044448-47.78666667 6.82666666-15.92888853-11.37777813-18.2044448-31.85777813-6.82666666-47.78666666 43.2355552-56.88888853 106.95111147-93.29777813 177.49333333-97.84888854h18.2044448c63.7155552 0 127.43111147 25.03111147 172.94222187 72.81777707l125.1555552 127.43111147c88.74666667 95.57333333 88.74666667 250.31111147-4.5511104 343.60888853zM505.17333333 129.13777813000002l-70.54222186-72.81777813c-68.26666667-65.99111147-177.49333333-65.99111147-245.76 2.2755552-68.26666667 68.26666667-68.26666667 179.76888853-2.27555627 248.03555627l125.15555627 127.4311104c36.40888853 36.40888853 86.47111147 54.61333333 136.53333333 52.33777813 50.06222187-4.55111147 97.84888853-29.58222187 127.4311104-70.54222187 11.37777813-15.92888853 31.85777813-18.2044448 47.78666667-6.82666666 15.92888853 11.37777813 18.2044448 31.85777813 6.82666666 47.78666666-43.2355552 56.88888853-106.95111147 93.29777813-177.49333333 97.84888854-70.54222187 4.55111147-138.80888853-20.48-188.8711104-70.54222187l-125.15555627-127.43111147c-91.02222187-95.57333333-91.02222187-250.31111147 2.27555627-343.60888853 47.78666667-47.78666667 109.22666667-70.54222187 172.94222187-70.54222293 61.44 0 122.88 22.7555552 170.66666666 68.26666666l70.54222187 72.81777814c13.65333333 13.65333333 13.65333333 34.13333333 0 47.78666666-15.92888853 11.37777813-36.40888853 11.37777813-50.06222187-2.2755552z"  horiz-adv-x="1024" />
      
      <glyph glyph-name="add-bold" unicode="&#59013;" d="M905.59250036 430.30500037H558.30500037V777.59250036c0 25.46775036-20.83725 46.30500037-46.30500037 46.30499928s-46.30500037-20.83725-46.30500037-46.30499928v-347.28749999H118.40749964c-25.46775036 0-46.30500037-20.83725-46.30499928-46.30500037s20.83725-46.30500037 46.30499928-46.30500037h347.28749999v-347.28749999c0-25.46775036 20.83725-46.30500037 46.30500037-46.30499928s46.30500037 20.83725 46.30500037 46.30499928V337.69499963h347.28749999c25.46775036 0 46.30500037 20.83725 46.30499928 46.30500037s-20.83725 46.30500037-46.30499928 46.30500037z"  horiz-adv-x="1024" />
      
      <glyph glyph-name="import" unicode="&#58907;" d="M465.8 140.27999999999997zM258.8 407.88c0 0.66 0 1.26-0.6 2.52 0-3.12 0-3.78 0.6-2.52z m-1.86 5.76c1.26-1.32 1.26-2.52 1.26-3.18v1.86s-0.66 0.6-1.26 1.32zM481.64 214.14c37.86 41.1 76.38 82.68 114.24 123.72 37.92 41.7 76.38 84.54 114.36 123.72v0.66a18.12 18.12 0 0 1 6.24 13.92v3.72c0 11.34-10.74 21.48-24.66 21.48H585.74c0 5.04-0.66 9.48-1.26 14.46l-8.28 36a383.4 383.4 0 0 1-15.66 38.52 258.42 258.42 0 0 1-30.96 49.86 267.72 267.72 0 0 1-42.3 41.7c-62.46 51-149.58 80.76-236.1 91.5a2459.34 2459.34 0 0 1-72.48 6.24c-2.52 0-5.76 0.6-5.76 0.6a43.62 43.62 0 0 1-10.08 1.32h-16.44c-14.52 0-29.04 0.6-41.64-4.44-20.22-7.56-15.12-34.68 5.7-38.4 0.6 0 1.26 0 1.26-0.66l5.64-1.92c3.84-1.26 7.56-3.24 12-5.04 8.22-3.78 17.04-7.56 25.26-11.4 16.44-7.5 32.22-15.78 47.34-24.6 15.84-8.82 25.92-15.12 41.1-25.92 13.86-10.08 27.12-20.76 39.72-31.56 3.12-3.12 5.7-5.64 8.82-8.16 1.32-1.26 1.92-2.52 3.18-3.78 0 0 3.18-2.52 3.18-3.18 5.64-5.64 10.74-12 15.12-18.3 5.04-5.7 8.82-12 12.66-18.3 5.04-7.56 6.96-12 10.08-18.3 2.52-5.04 3.78-10.08 5.64-15.78 0 0 1.26-6.96 3.18-21.48v-14.52h1.92c0-3.78 0-7.5-0.66-11.28v-3.78l-82.08 1.8h-3.12l-39.18 4.44c-16.38 1.32-29.64-6.3-30.9-16.44l-0.6-3.78a14.82 14.82 0 0 1 5.64-13.2v-0.6c12.06-12 30.96-27.78 44.88-41.04 7.56-6.96 13.86-13.26 16.44-17.64v-0.6c0.54-0.78 1.2-1.38 1.2-1.38 59.94-66.24 119.22-132.48 178.62-198.18 12.66-13.86 32.16-13.26 44.82 0zM279.02 459.66c29.64-0.66 58.68-1.26 88.32-1.26 10.8-0.66 22.74 6.3 24.66 15.18a198 198 0 0 1 5.7 50.46 154.92 154.92 0 0 1-11.34 52.38c-13.26 32.82-36.66 61.8-63.78 87.72-27.12 25.26-59.34 46.74-92.16 66.3-1.86 1.26-3.78 1.86-5.76 3.18 1.92 0 3.84 0 5.7-0.66 17.76-1.26 42.96-5.7 64.44-10.74 10.08-1.8 20.22-4.38 30.3-7.5 4.38-1.32 9.42-2.52 13.86-4.44 2.52-0.6 5.04-1.32 6.9-1.92 1.26-0.6 2.52-0.6 3.78-1.2 0.66 0 1.26-0.66 1.92-0.66 18.9-6.96 37.2-15.12 54.24-24 17.76-9.54 29.1-17.7 45.48-30.3 6.96-5.7 13.86-12 20.22-17.64 1.26-1.92 3.12-3.18 4.44-5.04 0.6 0 0.6-0.66 0.6-0.66 0.6 0 0.6-0.6 1.26-1.26 3.78-3.78 6.9-7.5 10.08-12 5.04-6.96 10.08-13.86 14.52-20.82 5.7-10.08 8.22-14.58 12.6-24 7.56-17.64 14.52-35.34 18.3-53.7v-1.26c0-1.26 0.6-3.12 0.6-4.38 0-3.78 0.6-7.56 0.6-11.34l1.92-20.22c1.98-11.34 10.8-20.88 25.98-20.88h80.16c-30.24-32.82-59.28-64.98-88.98-97.2-31.62-34.02-62.52-68.16-94.02-102.18-60.06 66.9-120.6 133.14-180.54 200.04zM690.14 742.14H932v-63.78h-241.86zM872 684h60v-720h-60zM92 24h780v-60H92zM92 324h60v-300H92z"  horiz-adv-x="1024" />
      
      <glyph glyph-name="export" unicode="&#58948;" d="M953.67099 823.50805664c-0.60562134-1.29776001-0.60562134-1.98989869-0.60562135-2.68203736 0.60562134-1.29776001 0.60562134-0.60562134 0.60562134 2.68203736z m-1e-8 2.07641601v-1.98989868c0 0.69213867 0 1.98989869 1.29776001 3.37417603-0.60562134-0.77865601-1.29776001-1.38427735-1.29776001-1.38427735zM944.15408326 577.7123108000001c-43.60473633 40.14404298-87.72857666 81.06674195-131.33331301 121.2107849C768.6104126 739.24017334 723.10229492 780.07635498 681.57397461 820.30691529h-0.69213867C677.16159058 824.54626465 671.79751587 826.96875 666.08737183 826.96875h-3.97979737c-12.02590944 0-22.84057617-11.42028809-22.84057617-26.2147522v-112.55905151c-5.36407471 0-10.03601074-0.69213867-15.31356811-1.29776002l-38.24066163-8.82476805c-13.92929078-4.75845337-27.59902955-10.38208008-40.92269897-16.61132814-18.86077881-8.91128541-36.59683228-19.89898682-52.9486084-32.87658689-16.35177613-13.2371521-31.23275757-28.37768555-44.296875-44.90249635-54.15985107-66.27227783-85.73867798-158.75930788-97.07244872-250.55419922-2.59552002-25.60913086-4.75845337-51.21826173-6.66183473-76.91390992 0-2.68203736-0.60562134-6.14273072-0.60562133-6.14273071-0.86517334-3.46069336-1.38427735-7.09442139-1.38427734-10.72814941v-17.47650147c0-15.40008545-0.60562134-30.8001709 4.67193603-44.21035767 8.04611207-21.45629883 36.76986695-16.00570679 40.7496643 6.05621339 0 0.60562134 0 1.29776001 0.69213868 1.29776001l2.07641601 5.96969604c1.29776001 4.0663147 3.46069336 8.04611207 5.36407471 12.7180481 3.97979736 8.73825074 8.04611207 18.08212281 12.11242676 26.82037353 7.95959473 17.47650146 16.78436279 34.17434694 26.12823486 50.26657105 9.34387207 16.78436279 16.00570679 27.51251221 27.51251221 43.60473633 10.72814941 14.70794678 22.06192017 28.81027222 33.48220825 42.13394165 3.28765869 3.28765869 5.96969605 6.05621338 8.6517334 9.34387207 1.29776001 1.38427735 2.68203736 2.07641602 3.97979737 3.37417603 0 0 2.68203736 3.37417603 3.37417601 3.37417603 5.96969605 5.96969605 12.7180481 11.42028809 19.37988283 16.00570678 6.05621338 5.36407471 12.7180481 9.34387207 19.46640014 13.41018676 8.04611207 5.36407471 12.7180481 7.35397339 19.37988281 10.72814941 5.36407471 2.68203736 10.72814941 3.97979736 16.7843628 5.96969605 0 0 7.35397339 1.29776001 22.84057617 3.37417603h15.40008545V434.18005371c3.97979736 0 7.95959473 0 11.93939209-0.69213867h3.97979736l-1.90338135-87.12295533v-3.28765868l-4.67193603-41.61483765c-1.38427735-17.38998414 6.66183472-31.49230957 17.47650146-32.79006959l3.97979737-0.60562133c5.36407471-0.519104 10.64163209 1.73034668 14.0158081 5.96969604h0.60562133c12.7180481 12.80456543 29.50241089 32.87658691 43.518219 47.67105102 7.35397339 8.04611207 14.10232544 14.70794678 18.68774414 17.47650148h0.60562133c0.86517334 0.60562134 1.47079468 1.29776001 1.47079469 1.29776001 70.33859253 63.59024048 140.59066773 126.57485962 210.32363891 189.55947876 14.96749878 13.4967041 14.36187744 34.26086426 0.25955201 47.67105103zM683.5638733 362.63021849999996c0.69213867 31.49230957 1.29776001 62.29248048 1.29776 93.69827271 0.69213867 11.42028809-6.66183472 24.13833619-16.09222412 26.2147522-17.47650146 4.3258667-35.55862427 6.31576539-53.55422974 6.05621337-19.12033082-0.77865601-37.89459229-4.8449707-55.63064575-12.02590942-34.8664856-14.10232544-65.58013916-38.93280029-93.09265137-67.65655517-26.82037354-28.81027222-49.57443238-62.98461914-70.33859253-97.85110473-1.29776001-1.98989869-1.98989869-3.97979736-3.37417602-6.14273072 0 2.07641602 0 4.0663147 0.69213867 6.05621338 1.29776001 18.86077881 6.05621338 45.59463501 11.42028809 68.43521119 1.90338135 10.72814941 4.67193604 21.45629883 7.95959472 32.18444823 1.38427735 4.67193604 2.68203736 10.03601074 4.67193604 14.70794677 0.60562134 2.68203736 1.38427735 5.36407471 2.07641601 7.3539734 0.60562134 1.29776001 0.60562134 2.68203736 1.29776002 3.97979736 0 0.69213867 0.69213867 1.29776001 0.69213868 2.07641602 7.35397339 20.07202148 16.00570679 39.4519043 25.43609618 57.5340271 10.12252808 18.86077881 18.77426148 30.88668824 32.18444824 48.27667237 6.05621338 7.35397339 12.7180481 14.70794678 18.68774415 21.45629882 2.07641602 1.29776001 3.37417603 3.28765869 5.3640747 4.67193604 0 0.60562134 0.69213867 0.60562134 0.69213867 0.60562133 0 0.60562134 0.60562134 0.60562134 1.29776001 1.29776001 3.97979736 3.97979736 7.95959473 7.35397339 12.7180481 10.72814943 7.35397339 5.36407471 14.70794678 10.72814941 22.06192016 15.40008544 10.72814941 6.05621338 15.48660279 8.73825074 25.43609619 13.41018676 18.68774414 8.04611207 37.54852295 15.40008545 57.0149231 19.46640015h1.29776001c1.29776001 0 3.28765869 0.60562134 4.67193603 0.60562133 3.97979736 0 8.04611207 0.60562134 12.02590943 0.60562135l21.45629883 2.07641601c12.02590944 2.07641602 22.1484375 11.42028809 22.1484375 27.59902954V748.4975280799999c34.8664856-32.09793091 68.95431519-62.89810181 103.1286621-94.47692872 36.07772828-33.56872559 72.32849121-66.35879517 108.49273682-99.75448609-70.7711792-63.76327515-141.10977173-127.95913697-212.14050292-191.63589477zM464.84805297 766.40661621H129.59338379v-764.81323242h764.81323242V336.84805297h60.56213379V-58.96875H69.03125V826.96875h395.81680298z"  horiz-adv-x="1024" />
      
      <glyph glyph-name="fuzhi" unicode="&#60538;" d="M716.75 699h-535.5A78.8445 78.8445 0 0 1 102.5 620.25v-598.5C102.5-21.688499999999976 137.843-57 181.25-57h535.5c43.4385 0 78.75 35.3115 78.75 78.75v598.5C795.5 663.657 760.1885 699 716.75 699z m15.75-677.25c0-8.6625-7.0875-15.75-15.75-15.75h-535.5a15.75 15.75 0 0 0-15.75 15.75v598.5a15.75 15.75 0 0 0 15.75 15.75h535.5a15.75 15.75 0 0 0 15.75-15.75v-598.5zM842.75 825h-535.5a31.5 31.5 0 0 1 0-63h535.5a15.75 15.75 0 0 0 15.75-15.75v-598.5a31.5 31.5 0 1 1 63 0v598.5C921.5 789.657 886.1885 825 842.75 825zM606.5 533.625H291.5a31.5 31.5 0 0 1 0-63h315a31.5 31.5 0 1 1 0 63zM606.5 376.125H291.5a31.5 31.5 0 1 1 0-63h315a31.5 31.5 0 1 1 0 63zM480.5 219.94799999999998H291.5a31.5 31.5 0 1 1 0-63h189a31.5 31.5 0 1 1 0 63z"  horiz-adv-x="1024" />
      
      <glyph glyph-name="outline-code-off" unicode="&#58881;" d="M817.92 384l-195.413333 195.84L682.666667 640l256-256-153.173334-153.173333L725.333333 291.413333 817.92 384zM59.306667 715.946667l178.773333-178.773334L85.333333 384l256-256 60.16 60.16L206.08 384 298.666667 476.586667l545.28-545.28 60.16 60.16L119.893333 776.106667 59.306667 715.946667z"  horiz-adv-x="1024" />
      
      <glyph glyph-name="outline-code" unicode="&#58884;" d="M401.066667 187.733333L204.8 384l196.266667 196.266667L341.333333 640l-256-256 256-256 59.733334 59.733333z m221.866666 0l196.266667 196.266667-196.266667 196.266667L682.666667 640l256-256-256-256-59.733334 59.733333z"  horiz-adv-x="1024" />
      
      <glyph glyph-name="gengduo-shuxiang" unicode="&#59588;" d="M512 118.87856196999996c48.60559698 0 88.37381268-39.7682157 88.37381268-88.37381267s-39.7682157-88.37381268-88.37381268-88.37381267-88.37381268 39.7682157-88.37381268 88.37381267 39.7682157 88.37381268 88.37381268 88.37381267z m-88.37381268 265.12143803c0-48.60559698 39.7682157-88.37381268 88.37381268-88.37381268s88.37381268 39.7682157 88.37381268 88.37381268-39.7682157 88.37381268-88.37381268 88.37381268-88.37381268-39.7682157-88.37381268-88.37381268z m0 353.4952507c0-48.60559698 39.7682157-88.37381268 88.37381268-88.37381267s88.37381268 39.7682157 88.37381268 88.37381267-39.7682157 88.37381268-88.37381268 88.37381267-88.37381268-39.7682157-88.37381268-88.37381267z"  horiz-adv-x="1024" />
      
      <glyph glyph-name="chongshi" unicode="&#58928;" d="M750.58296875 824.00578125c6.27046875 2.6775 13.5253125-0.23625 16.21265625-6.50671875l64.68328125-151.43625c0.46265625-1.07296875 0.7678125-2.21484375 0.905625-3.37640625 0.81703125-6.7725-4.01625-12.92484375-10.78875-13.741875l-163.49484375-19.69734375c-2.6578125-0.315-5.3353125 0.22640625-7.64859375 1.56515625-5.90625 3.4059375-7.9340625 10.9659375-4.51828125 16.8721875l33.63609375 58.36359375C505.31609375 794.29734375 290.436875 731.8190625 191.5859375 560.60671875 89.27 383.38968750000004 149.98625 156.77671875 327.20328125 54.46078124999997S731.0234375 12.861093750000009 833.339375 190.078125c28.61578125 49.56328125 45.045 103.95984375 48.85453125 159.7640625 1.1615625 17.01 15.8878125 29.8659375 32.90765625 28.704375 17.01-1.1615625 29.8659375-15.8878125 28.704375-32.90765625-4.43953125-65.1459375-23.63484375-128.66765625-56.98546875-186.440625-119.3653125-206.74828125-383.73890625-277.59375-590.49703125-158.21859375s-277.59375 383.73890625-158.21859375 590.49703125C254.02484375 792.24984375 506.6646875 864.85734375 710.5090625 759.58828125l34.22671875 59.22984375c1.33875 2.31328125 3.38625 4.134375 5.8471875 5.18765625z"  horiz-adv-x="1024" />
      
      <glyph glyph-name="chat-history-line" unicode="&#59133;" d="M512 810.666667c235.648 0 426.666667-191.018667 426.666667-426.666667s-191.018667-426.666667-426.666667-426.666667a424.832 424.832 0 0 0-200.874667 50.133334L85.333333-42.66666699999996l50.176 225.706667A425.216 425.216 0 0 0 85.333333 384C85.333333 619.648 276.352 810.666667 512 810.666667z m0-85.333334a341.333333 341.333333 0 0 1-301.226667-502.016l14.933334-27.904-27.989334-125.696 125.781334 27.904 27.861333-14.890666A339.2 339.2 0 0 1 512 42.66666699999996a341.333333 341.333333 0 0 1 0 682.666666z m42.666667-128v-213.333333h170.666666v-85.333333h-256V597.333333h85.333334z"  horiz-adv-x="1024" />
      
      <glyph glyph-name="download" unicode="&#58906;" d="M916.62521519 181.68693141000006A33.71838377 33.71838377 0 0 1 882.90683142 147.96854765v-134.87537907H141.09316858V147.96854765a33.71838377 33.71838377 0 1 1-67.43768953 0v-168.59376284a33.71838377 33.71838377 0 0 1 33.71930576-33.71930576h809.25043038a33.71838377 33.71838377 0 0 1 33.71930576 33.71930576V147.96854765a33.71838377 33.71838377 0 0 1-33.71930576 33.71838376zM212.30736135 364.30796969000005L485.36348182 91.11908155000003c6.67526451-6.74441434 15.44346417-9.98154885 24.2098198-9.91332101 1.14604335-0.13553369 2.15747501-0.67490243 3.37174619-0.67490242a33.3145487 33.3145487 0 0 1 13.68982423 3.03521695 33.24724287 33.24724287 0 0 1 11.73426677 7.48477863l273.25711599 273.1225043a33.71838377 33.71838377 0 1 1-47.67835338 47.67835338L546.66250958 194.63546935V788.6252151900001a33.71838377 33.71838377 0 1 1-67.43676753 0v-595.67515793L260.11940442 411.85078938a33.71838377 33.71838377 0 1 1-47.81296507-47.54374169z"  horiz-adv-x="1024" />
      
      <glyph glyph-name="send" unicode="&#59558;" d="M948.90666667 788.13866667v3.64088888c0 3.64088889-3.64088889 7.28177778-3.64088889 10.92266667 0 0 0 3.64088889-3.64088889 3.64088889 0 3.64088889-3.64088889 3.64088889-3.64088889 7.28177778h-3.64088889s-3.64088889 0-3.64088889 3.64088889h-3.64088889-3.64088888-3.6408889C916.13866667 820.90666667 912.49777778 820.90666667 912.49777778 820.90666667h-3.64088889-3.64088889c-3.64088889 0-3.64088889 0-7.28177778-3.64088889h-3.64088889l-800.99555555-400.49777778c-14.56355555-7.28177778-21.84533333-21.84533333-18.20444445-36.40888889 3.64088889-14.56355555 14.56355555-29.12711111 29.12711112-29.12711111l218.45333333-36.40888889h7.28177777c7.28177778 0 14.56355555 3.64088889 21.84533334 7.28177778l316.75733333 236.65777778-222.09422222-258.50311112c-3.64088889-3.64088889-3.64088889-7.28177778-7.28177778-10.92266666v-302.19377778c0-18.20444445 10.92266667-32.768 29.12711111-36.40888889h7.28177778c14.56355555 0 25.48622222 7.28177778 32.768 18.20444445l91.02222222 163.84 218.45333334-174.76266667c7.28177778-3.64088889 14.56355555-7.28177778 21.84533333-7.28177778 3.64088889 0 10.92266667 0 14.56355555 3.64088889 10.92266667 3.64088889 21.84533333 18.20444445 21.84533334 29.12711111l72.81777778 800.99555556v3.64088889"  horiz-adv-x="1024" />
      
      <glyph glyph-name="stop" unicode="&#59110;" d="M512 829C266.2 829 67 629.8 67 384s199.2-445 445-445 445 199.2 445 445S757.8 829 512 829z m279.3-724.3c-36.3-36.3-78.5-64.8-125.6-84.7-48.7-20.6-100.4-31-153.7-31s-105.1 10.4-153.7 31c-47 19.9-89.3 48.4-125.6 84.7-36.3 36.3-64.8 78.5-84.7 125.6-20.6 48.7-31 100.4-31 153.7s10.4 105.1 31 153.7c19.9 47 48.4 89.3 84.7 125.6 36.3 36.3 78.5 64.8 125.6 84.7 48.7 20.6 100.4 31 153.7 31s105.1-10.4 153.7-31c47-19.9 89.3-48.4 125.6-84.7 36.3-36.3 64.8-78.5 84.7-125.6 20.6-48.7 31-100.4 31-153.7s-10.4-105.1-31-153.7c-19.9-47.1-48.4-89.3-84.7-125.6zM352 224h320V544H352v-320z m50 270h220v-220H402V494z"  horiz-adv-x="1024" />
      
      <glyph glyph-name="zanwushuju" unicode="&#58883;" d="M958.66 607.357h0.025L511.996 830.696 66.12 607.764h-0.83V160.64999999999998l446.707-223.345L958.711 160.64999999999998V607.357h-0.05z m-446.664 169.23l335.907-168.38-127.914-64.487-337.52 167.877 129.527 64.99z m-188.06-96.672l341.852-164.713L511.972 440.7 176.095 607.357l147.84 72.558zM121.125 550.86h17.754l-17.754 0.653V579.4300000000001l362.96-181.485v-390.872l-362.96 181.482V550.86z m781.74-27.275v-335.031L539.906 7.072000000000003V397.944l362.962 181.485v-55.844z"  horiz-adv-x="1024" />
      
      <glyph glyph-name="baocun" unicode="&#59702;" d="M856.5248 820.90666667a58.23032889 58.23032889 0 0 0 58.23032889-58.23032889V6.246399999999994a58.23032889 58.23032889 0 0 0-58.23032889-58.20529778H158.34794667a58.23032889 58.23032889 0 0 0-58.22919112 58.20529778V762.67633778A58.23032889 58.23032889 0 0 0 158.34794667 820.90666667h698.20188444zM303.81397333 471.79434667a58.13248 58.13248 0 0 0-58.23032888 58.13248V762.70136889h-87.23569778v-756.45610667h698.32248888V762.67633778H769.38808889v-232.6528a58.23032889 58.23032889 0 0 0-58.23032889-58.22919111H303.81397333z m0 58.13248h407.31875556V762.70136889H303.81397333v-232.77454222z m407.22204445-232.67669334a29.07818667 29.07818667 0 1 0 0.09671111-58.10858666H303.81397333a29.05429333 29.05429333 0 1 0 0 58.10858666h407.22204445z"  horiz-adv-x="1024" />
      
      <glyph glyph-name="xingxi" unicode="&#59041;" d="M694.36738-24.126323999999954c-7.368379 0-14.736758 2.353788-20.672397 7.26604L457.453528 160.90185899999994H173.770937c-42.675195 0-77.879672 35.920847-77.879672 79.619428V712.711573c0 43.596242 35.204477 78.289027 77.879672 78.289027h676.355787c43.186888 0 78.084349-34.795123 78.084349-78.289027v-472.190286c0-43.800919-34.9998-79.619428-78.084349-79.619428H726.501699v-152.484509c0-12.587647-7.061363-24.04957-18.420947-29.371178-4.502898-2.149111-9.005797-3.172497-13.713372-3.172496zM173.770937 726.117929c-6.856686 0-12.485309-5.628623-12.485308-13.406356v-472.190286c0-7.777733 5.730961-14.736758 12.485308-14.736758h295.349191c7.573056 0 14.736758-2.456126 20.570058-7.26604l171.928843-141.329602V193.65021000000002c0 17.909254 14.839097 32.134319 32.748351 32.134319h155.759344c6.959025 0 13.201679 7.163702 13.201679 14.736758V712.711573c0 7.470718-6.140316 13.406356-13.201679 13.406356H173.770937z"  horiz-adv-x="1024" />
      
      <glyph glyph-name="xiaoxi" unicode="&#58894;" d="M842.13142397 751.30365893H181.20577243c-63.28393491 0-114.7616808-51.47774588-114.7616808-114.7616808v-375.87868044c0-63.28393491 51.47774588-114.7616808 114.7616808-114.7616808h192.32350984l118.36567534-121.33448313c5.19196149-5.33004558 12.33090854-8.32647017 19.7736406-8.32647015s14.56787068 3.01023299 19.77364057 8.32647015l118.36567535 121.33448313h192.32350984c63.28393491 0 114.7616808 51.47774588 114.76168081 114.7616808V636.54197813c0 63.28393491-51.47774588 114.7616808-114.76168081 114.7616808z m59.52804788-490.64036124c0-32.82258637-26.70546151-59.52804788-59.52804788-59.52804789H638.16742599a27.68585851 27.68585851 0 0 1-19.77364057-8.32647016l-106.72518721-109.40401841-106.72518721 109.40401841a27.60576973 27.60576973 0 0 1-19.7736406 8.32647016H181.20577243c-32.82258637 0-59.52804788 26.70546151-59.52804789 59.52804789V636.54197813c0 32.82258637 26.70546151 59.52804788 59.52804789 59.52804789h660.93945995c32.82258637 0 59.52804788-26.70546151 59.52804789-59.52804789v-375.87868044zM328.09961918 493.59733612c-26.0150411 0-47.10048048-21.08543937-47.10048048-47.10048047s21.08543937-47.10048048 47.10048048-47.10048047 47.10048048 21.08543937 47.10048048 47.10048047-21.08543937 47.10048048-47.10048048 47.10048047zM511.03341141 493.59733612c-26.0150411 0-47.10048048-21.08543937-47.10048047-47.10048047s21.08543937-47.10048048 47.10048047-47.10048047 47.10048048 21.08543937 47.10048048 47.10048047-21.08543937 47.10048048-47.10048048 47.10048047zM693.96720366 493.59733612c-26.0150411 0-47.10048048-21.08543937-47.10048048-47.10048047s21.08543937-47.10048048 47.10048048-47.10048047 47.10048048 21.08543937 47.10048047 47.10048047-21.08543937 47.10048048-47.10048047 47.10048047z"  horiz-adv-x="1024" />
      
      <glyph glyph-name="delete" unicode="&#58959;" d="M160 640H96q-14.016 0-23.008 8.992T64 672t8.992 23.008T96 704h256V800q0 14.016 8.992 23.008T384 832h256q14.016 0 23.008-8.992T672 800v-96h256q14.016 0 23.008-8.992T960 672t-8.992-23.008T928 640h-64v-672q0-14.016-8.992-23.008T832-64H192q-14.016 0-23.008 8.992T160-32V640z m448 64V768h-192v-64h192zM224 0h576V640H224v-640z m192 128q-14.016 0-23.008 8.992T384 160V480q0 14.016 8.992 23.008T416 512t23.008-8.992T448 480v-320q0-14.016-8.992-23.008T416 128z m192 0q-14.016 0-23.008 8.992T576 160V480q0 14.016 8.992 23.008T608 512t23.008-8.992T640 480v-320q0-14.016-8.992-23.008T608 128z"  horiz-adv-x="1024" />
      
      <glyph glyph-name="edit" unicode="&#58961;" d="M199.008 223.00800000000004l194.016-112 224 388-194.016 112z m-24-60L208 15.008000000000038l144.992 46.016z m280 504l194.016-112 56.992 98.016L512 765.024z m-351.008-480l384 664.992 304.992-176-384-664.992-248-78.016z m384-254.016v64h448v-64h-448z"  horiz-adv-x="1024" />
      
      <glyph glyph-name="check" unicode="&#58940;" d="M369.78688 167.45756444000006L129.70666667 407.53777778q-14.78200889 14.78200889-35.28021334 9.10222222t-25.59544888-25.59544889 9.68476445-35.82634667l291.2711111-291.27111111 582.54222223 582.54222222q10.23089778 11.39598222 9.68476444 26.17799111t-11.39598222 25.59544889-25.04931555 10.81344-25.5954489-10.23089777z"  horiz-adv-x="1024" />
      
      <glyph glyph-name="setting" unicode="&#58993;" d="M624.992 832l222.016-128-43.008-75.008q22.016-26.016 40-56.992t30.016-64h86.016v-256h-86.016q-24-67.008-70.016-120.992l43.008-75.008-222.016-128-43.008 75.008q-70.016-12.992-140 0l-43.008-75.008-222.016 128 43.008 75.008q-23.008 27.008-40.512 57.504t-29.504 63.488H63.936v256h86.016q24 67.008 70.016 120.992L176.96 704l222.016 128 43.008-75.008q70.016 12.992 140 0z m24-87.008l-12-20-22.016-39.008-44.992 8q-58.016 11.008-116 0l-44.992-8-34.016 59.008-110.016-64 32.992-59.008-28.992-34.016q-38.016-44.992-58.016-100.992l-15.008-43.008H127.936v-128h67.008l16-43.008q10.016-28.992 24-52.992t34.016-48l28.992-34.016-32.992-59.008 110.016-64 34.016 59.008 44.992-8q58.016-11.008 116 0l44.992 8 34.016-59.008 110.016 64-32.992 59.008 28.992 34.016q38.016 46.016 58.016 100.992l15.008 43.008h68v128h-67.008l-16 43.008q-8.992 27.008-24 52.512t-34.016 48.512l-28.992 34.016 32.992 59.008zM512 604q95.008-2.016 158.496-65.504T736 380q-2.016-95.008-65.504-158.496T512 156q-95.008 2.016-158.496 65.504T288 380q2.016 95.008 65.504 158.496T512 604z m0-64q-68-2.016-112.992-47.008T352 380q2.016-68 47.008-112.992T512 220q68 2.016 112.992 47.008T672 380q-2.016 68-47.008 112.992T512 540z"  horiz-adv-x="1024" />
      
      <glyph glyph-name="s-tools" unicode="&#59001;" d="M764 640.992q62.016-64 87.008-148.992H960v-192h-108.992q-24.992-84.992-87.008-148.992l55.008-95.008-166.016-96-55.008 95.008q-86.016-22.016-172 0l-55.008-95.008-166.016 96 55.008 95.008q-62.016 64-87.008 148.992H63.968v192h108.992q24.992 84.992 87.008 148.992L204.96 736l166.016 96 55.008-95.008q86.016 22.016 172 0L652.992 832l166.016-96zM704 396q-2.016 82.016-56 136T512 588q-82.016-2.016-136-56T320 396q2.016-82.016 56-136t136-56q82.016 2.016 136 56t56 136z"  horiz-adv-x="1024" />
      
      <glyph glyph-name="shanchu2" unicode="&#58880;" d="M939.22842773 4.542779730000007L558.44282027 385.37314027l380.78560746 380.80088853c11.91619627 11.93147733 11.91619627 31.20783787 0 43.1393152-11.94785067 11.93147733-31.22421013 11.93147733-43.1404064 0L515.30241387 428.51463787 134.50261653 809.31443627c-11.9336608 11.9030976-31.20892907 11.9030976-43.1404064 0-11.93256853-11.93256853-11.93256853-31.2384 0-43.16987734L472.13144427 385.37314027 91.33164693 4.542779730000007c-11.9030976-11.91728747-11.9030976-31.164176 0-43.1393152 11.93147733-11.91837867 31.2373088-11.91837867 43.16987734 0l380.80088853 380.82926827 380.78451627-380.82926827c11.91619627-11.91837867 31.19255573-11.91837867 43.1404064 0C951.144624-26.62139626999999 951.17409493-7.374507730000005 939.22842773 4.542779730000007z"  horiz-adv-x="1024" />
      
      <glyph glyph-name="window-max_line" unicode="&#59542;" d="M819.2-59.73333333000005H204.8c-75.4048 0-136.53333333 61.12853333-136.53333333 136.53333333V691.2c0 75.4048 61.12853333 136.53333333 136.53333333 136.53333333h614.4c75.4048 0 136.53333333-61.12853333 136.53333333-136.53333333v-614.4c0-75.4048-61.12853333-136.53333333-136.53333333-136.53333333z m68.26666667 750.93333333c0 37.7024-30.56426667 68.26666667-68.26666667 68.26666667H204.8c-37.7024 0-68.26666667-30.56426667-68.26666667-68.26666667v-614.4c0-37.7024 30.56426667-68.26666667 68.26666667-68.26666667h614.4c37.7024 0 68.26666667 30.56426667 68.26666667 68.26666667V691.2z"  horiz-adv-x="1024" />
      
      <glyph glyph-name="window-window_line" unicode="&#59544;" d="M832 192H704v-128c0-70.692-57.308-128-128-128H192c-70.692 0-128 57.308-128 128V448c0 70.692 57.308 128 128 128h128V704c0 70.692 57.308 128 128 128h384c70.692 0 128-57.308 128-128v-384c0-70.692-57.308-128-128-128zM192 512c-35.346 0-64-28.654-64-64v-384c0-35.346 28.654-64 64-64h384c35.346 0 64 28.654 64 64V448c0 35.346-28.654 64-64 64H192z m704 192c0 35.346-28.654 64-64 64H448c-35.346 0-64-28.654-64-64v-128h192c70.692 0 128-57.308 128-128v-192h128c35.346 0 64 28.654 64 64V704z"  horiz-adv-x="1024" />
      
      <glyph glyph-name="riqi" unicode="&#58957;" d="M711.79591836 114.48299320000001h35.01445579c20.2712585 0 36.85714286 12.28571429 36.85714286 27.33503401 0 15.05102041-16.58588435 27.33588435-36.85714286 27.33588436H711.79591836c-20.2712585 0-36.85714286-12.28571429-36.85714285-27.33588436 0.3069728-15.04931972 16.58588435-27.33503401 36.85714285-27.33503401z m0 163.09183673h35.01445579c20.2712585 0 36.85714286 12.28571429 36.85714286 27.33588435 0 15.05017007-16.58588435 27.33588435-36.85714286 27.33588435H711.79591836c-20.2712585 0-36.85714286-12.28571429-36.85714285-27.33588435 0.3069728-15.05017007 16.58588435-27.33588435 36.85714285-27.33588434z m-217.45663265 1e-8h35.32142858c20.27210885 0 36.85714286 12.28571429 36.85714285 27.33588434 0 15.05017007-16.58588435 27.33588435-36.85714285 27.33588435h-35.32142858c-20.27210885 0-36.85714286-12.28571429-36.85714285-27.33588435 0-15.05017007 16.58588435-27.33588435 36.85714285-27.33588434z m-217.45663265 0h35.01445578c20.2712585 0 36.85714286 12.28571429 36.85714285 27.33588434 0 15.05017007-16.58588435 27.33588435-36.85714285 27.33588435h-35.01445578c-20.27210885 0-36.85714286-12.28571429-36.85714285-27.33588435 0-15.05017007 16.27891156-27.33588435 36.85714285-27.33588434z m217.45663265-163.09183674h35.32142858c20.27210885 0 36.85714286 12.28571429 36.85714285 27.33503401 0 15.05102041-16.58588435 27.33588435-36.85714285 27.33588436h-35.32142858c-20.27210885 0-36.85714286-12.28571429-36.85714285-27.33588436 0-15.04931972 16.58588435-27.33503401 36.85714285-27.33503401z m-217.45663265 0h35.01445578c20.2712585 0 36.85714286 12.28571429 36.85714285 27.33503401 0 15.05102041-16.58588435 27.33588435-36.85714285 27.33588436h-35.01445578c-20.27210885 0-36.85714286-12.28571429-36.85714285-27.33588436 0-15.04931972 16.27891156-27.33503401 36.85714285-27.33503401zM786.73894558 713.10289116h-54.97874149V792.65306123C731.76020409 807.39540816 719.78146258 819.3741496600001 705.03911565 819.3741496600001c-14.4362245 0-26.41411565-11.67176871-26.72193878-26.41411565v-80.16411565H347.83333333V792.65306123C347.832483 807.39540816 335.8537415 819.3741496600001 321.11139456 819.3741496600001c-14.4362245 0-26.41496599-11.67176871-26.41496598-26.41411565v-80.16411565h-57.74234694C148.49744898 713.10289116 76.62585034 651.06037415 76.62585034 534.03911565v-420.78486395c0-84.15731293 63.88605442-153.57142857 144.97108844-161.25000001l565.1420068-0.61394557c88.45663266 0 160.32823129 72.48554422 160.32823129 161.86394558V550.9319727899999c0 89.37840136-71.87074829 162.17091837-160.32823129 162.17091837zM892.70323129 97.28231291999998c0-50.67772108-43.92176871-91.52806123-97.67176871-91.52806122h-566.06292516c-54.05697279 0-97.67176871 41.15646258-97.67176871 91.52806123V440.9744898h761.71343537l-0.30697279-343.69217688z m0 469.6207483v-71.56462584H131.29676871v71.56462584c0 44.84268707 39.31462585 91.52891157 108.7287415 91.52891157h54.67091837v-81.70068026c0.30782313-14.12840135 12.28571429-25.79931973 26.72193876-25.79931974 14.74234695 0 26.72108844 11.9787415 26.72108844 26.72108843v80.77891157h330.48469388v-81.70068026c0.30782313-14.12840135 12.28656462-25.79931973 26.72193877-25.79931974 14.74319727 0 26.72108844 11.9787415 26.72108844 26.72108843v80.77891157h51.90731292c53.75 0 113.64285714-39.62159865 108.7287415-91.52891157z"  horiz-adv-x="1024" />
      
      <glyph glyph-name="shuaxin" unicode="&#59241;" d="M950.4 278.4c-6.4 6.4-12.8 9.6-22.4 9.6h-224c-19.2 0-32-12.8-32-32s12.8-32 32-32h153.6l-80-80c-70.4-70.4-166.4-112-268.8-112-156.8 0-294.4 92.8-352 236.8-6.4 16-25.6 25.6-41.6 16-16-9.6-25.6-25.6-16-41.6 67.2-166.4 230.4-275.2 409.6-275.2 121.6 0 233.6 48 316.8 131.2l70.4 73.6v-140.8c0-19.2 12.8-32 32-32s32 12.8 32 32v224c0 9.6-3.2 16-9.6 22.4zM320 480c19.2 0 32 12.8 32 32s-12.8 32-32 32h-153.6l80 80c70.4 70.4 166.4 112 268.8 112 156.8 0 294.4-92.8 352-236.8 6.4-16 25.6-25.6 41.6-16 16 6.4 25.6 25.6 16 41.6-67.2 166.4-227.2 275.2-409.6 275.2-121.6 0-233.6-48-316.8-131.2l-70.4-73.6v140.8c0 19.2-12.8 32-32 32s-32-12.8-32-32v-224c0-9.6 3.2-16 9.6-22.4 6.4-6.4 12.8-9.6 22.4-9.6h224z"  horiz-adv-x="1024" />
      
      <glyph glyph-name="select" unicode="&#59180;" d="M721.45428831-52.55847716000005H502.63200239a181.88055903 181.88055903 0 0 0-129.91468527 53.0264026L147.17835311 227.42092590000004a96.33129741 96.33129741 0 0 0 7.24694164 142.4642677 99.15937202 99.15937202 0 0 0 131.15196836-9.01448829l64.86896463-65.04572062V658.52557562A84.4887345 84.4887345 0 0 0 434.75820714 742.83755501h3.00482973a84.4887345 84.4887345 0 0 0 84.3119794-84.3119794v-87.14005401a84.4887345 84.4887345 0 0 0 40.47682018 10.2517705H565.02640174a84.4887345 84.4887345 0 0 0 80.06986747-57.62202301 83.95847007 83.95847007 0 0 0 45.0724423 13.079846h3.00482886A84.31197941 84.31197941 0 0 0 777.13201043 470.10509361a83.07469632 83.07469632 0 0 0 41.36059394 10.95878916h3.00482972a84.4887345 84.4887345 0 0 0 84.31197939-84.31197941v-265.13201044A183.82486075 183.82486075 0 0 0 721.45428831-52.55847716000005zM213.81486526 346.55357624a50.19832713 50.19832713 0 0 1-31.4623319-10.2517705 52.14262885 52.14262885 0 0 1-3.8886026-76.88828353l225.53896315-226.77624621a137.86864556 137.86864556 0 0 1 98.62910848-41.00708461h218.82228592a139.45943797 139.45943797 0 0 1 139.28268288 139.28268288v265.13201043a40.12331085 40.12331085 0 0 1-40.12331085 40.12331172h-3.00482972A40.30006595 40.30006595 0 0 1 779.07631217 407.00367474v-111.88570871a22.27108851 22.27108851 0 0 0-22.09433427-21.91757917 22.09433429 22.09433429 0 0 0-22.09433428 22.09433428v157.48841454a40.12331085 40.12331085 0 0 1-40.12331084 40.12331086h-3.00482972a40.12331085 40.12331085 0 0 1-40.12331087-40.12331086v-157.66516965a22.09433429 22.09433429 0 0 0-22.09433426-22.09433426 22.4478436 22.4478436 0 0 0-22.09433428 22.27108937V497.32531269a40.12331085 40.12331085 0 0 1-42.42112191 40.12331173h-3.00482885a40.12331085 40.12331085 0 0 1-40.12331085-40.12331173v-202.20734665a22.09433429 22.09433429 0 0 0-22.09433429-22.09433427 22.4478436 22.4478436 0 0 0-22.09433425 22.27108937V658.52557562A40.12331085 40.12331085 0 0 1 437.76303687 698.64888647h-3.00482972a40.12331085 40.12331085 0 0 1-40.12331085-40.12331086v-416.08050199a22.09433429 22.09433429 0 0 0-37.64874555-15.55441127l-102.69446531 102.6944653a57.9755332 57.9755332 0 0 1-40.47682018 16.96844859zM309.08563469 568.55744697a21.91757918 21.91757918 0 0 0-19.26625965 11.31229849 168.80071303 168.80071303 0 1 0 316.03735707 82.54443276 166.32614774 166.32614774 0 0 0-3.53509414-33.93689718 22.09433429 22.09433429 0 1 0-43.30489479 8.83773405 118.60238591 118.60238591 0 0 1 2.47456528 25.09916313A123.7282716 123.7282716 0 1 1 328.35189433 601.43381618a22.09433429 22.09433429 0 0 0-19.26625964-32.87636921z"  horiz-adv-x="1024" />
      
      <glyph glyph-name="jiaoseguanli" unicode="&#58908;" d="M832.5241535 823.61462937H191.4758465a75.63626059 75.63626059 0 0 1-75.35445634-75.52353889v-725.08233422a75.63626059 75.63626059 0 0 1 75.35445634-75.41081719h641.048307a75.63626059 75.63626059 0 0 1 75.35445634 75.41081719V748.09109048A75.63626059 75.63626059 0 0 1 832.5241535 823.61462937z m11.27216997-800.32406885a11.27216999 11.27216999 0 0 0-11.27216997-11.27217H191.4758465a11.27216999 11.27216999 0 0 0-11.27216997 11.27217V748.09109048a11.27216999 11.27216999 0 0 0 11.27216997 11.27216998h641.048307a11.27216999 11.27216999 0 0 0 11.27216997-11.27216998zM581.7747322 372.72783001000005a150.82163439 150.82163439 0 1 1-142.02934179 0 256.32914544 256.32914544 0 0 1-187.34346514-223.63985247 22.20617486 22.20617486 0 0 1 19.89538002-24.23516548h474.84016058a22.20617486 22.20617486 0 0 1 22.09345316 22.54433998v2.0289906A256.21642373 256.21642373 0 0 1 581.7747322 372.72783001000005z m-71.01467089 222.7380789a88.65561692 88.65561692 0 1 0-87.58476078-88.65561694 88.26109098 88.26109098 0 0 0 87.58476078 88.65561694z m-185.99080475-407.43258408a197.26297472 197.26297472 0 0 0 371.98160948 0z"  horiz-adv-x="1024" />
      
      <glyph glyph-name="caidanguanli" unicode="&#58911;" d="M292.58308887 385.57643869c59.90467026 0 219.41691113-2.27707811 219.41691113-2.27707811s-2.27707811 159.51224087-2.27707811 219.47529775a217.19821964 217.19821964 0 1 1-217.13983302-217.19821964zM185.32687128 709.97248931a151.80520728 151.80520728 0 0 0 258.88626501-107.19783098c0-35.03197091 0.75902604-102.00142196 1.40127883-153.03132626-51.08829092 0.6422528-118.1745152 1.34289222-153.03132625 1.34289222a151.80520728 151.80520728 0 0 0-107.25621759 258.88626502zM948.61513077 602.77465833a217.19821964 217.19821964 0 1 1-434.33805266 3.09449076v-3.32803724c0-59.96305687-2.27707811-219.47529775-2.27707811-219.47529773s159.45385426 2.27707811 219.41691113 2.2770781a217.25660626 217.25660626 0 0 1 217.19821964 217.43176611z m-368.82826706 0a151.80520728 151.80520728 0 1 0 151.80520727-151.80520727c-35.03197091 0-101.94303534-0.70063942-153.03132626-1.34289222 0.46709295 51.14667753 1.22611898 118.23290182 1.22611899 153.14809949zM75.38486923 163.53212973999996a217.19821964 217.19821964 0 0 1 434.33805266 0c0 59.96305687 2.27707811 219.47529775 2.27707811 219.47529775s-159.51224087-2.33546473-219.41691113-2.33546473a217.13983302 217.13983302 0 0 1-217.19821964-217.13983302z m368.82826706 0a151.80520728 151.80520728 0 1 0-151.80520727 151.80520728c35.03197091 0 101.94303534 0.75902604 153.03132626 1.40127884-0.46709295-51.20506414-1.22611898-118.29128843-1.22611899-153.20648612zM731.41691113 380.73034938c-59.96305687 0-219.41691113 2.27707811-219.41691113 2.27707811s2.27707811-159.45385426 2.27707811-219.41691113a217.19821964 217.19821964 0 1 1 217.13983302 217.13983302zM838.96506182 56.33429877000003a151.80520728 151.80520728 0 0 0-258.88626502 107.19783097c0 35.03197091-0.75902604 102.00142196-1.40127883 153.03132625 51.08829092-0.6422528 118.1745152-1.40127883 153.03132625-1.40127883A151.80520728 151.80520728 0 0 0 838.96506182 56.33429877000003z"  horiz-adv-x="1024" />
      
      <glyph glyph-name="shoufeiguanli" unicode="&#58912;" d="M660.514688 613.0659840000001a31.667328 31.667328 0 0 1-44.76326399 0l-95.45356801-95.453568a31.667328 31.667328 0 0 1-6.66086399-9.709056 30.538368 30.538368 0 0 1-6.604416 9.709056L411.409664 613.23532801a31.667328 31.667328 0 0 1-44.763264 0 31.667328 31.667328 0 0 1 0-44.76326401L450.64102401 484.47743999h-43.46496001a31.667328 31.667328 0 0 1-31.667328-31.66732799 31.667328 31.667328 0 0 1 31.667328-31.667328h71.40672001v-45.15839999H407.119616a31.667328 31.667328 0 0 1 0-63.33465601h71.40672v-152.748288a31.667328 31.667328 0 0 1 31.667328-31.667328 31.667328 31.667328 0 0 1 31.66732799 31.667328v152.97408h71.40672001a31.667328 31.667328 0 1 1 0 63.334656h-71.40672001v44.87616h71.40672001a31.667328 31.667328 0 0 1 31.667328 31.667328 31.667328 31.667328 0 0 1-31.667328 31.667328h-36.578304l83.82528 83.82528a31.667328 31.667328 0 0 1 0 44.76326399zM512 820.90752a437.472 437.472 0 1 1 437.472-437.472A437.472 437.472 0 0 1 512 820.90752zM776.515328 118.69439998999997a372.5568 372.5568 0 1 0 80.212608 118.93593601A372.5568 372.5568 0 0 0 776.515328 118.69439998999997z"  horiz-adv-x="1024" />
      
      <glyph glyph-name="jiankongbaojing" unicode="&#58913;" d="M380.09855999 379.38176001a31.70816 31.70816 0 0 1-31.42655999-31.59552001V136.192a31.70816 31.70816 0 0 1 31.59552-31.59552 31.59552 31.59552 0 0 1 31.42656 31.59552v211.59424a31.65184 31.65184 0 0 1-31.59552001 31.59552001zM757.89311999 609.28a31.70816 31.70816 0 0 1 44.66176002 0l59.47391999 59.47392a31.70816 31.70816 0 0 1 0 44.66176 31.59552 31.59552 0 0 1-44.66176 0L757.89311999 654.336a31.59552 31.59552 0 0 1 0-45.056zM241.664 609.28a31.70816 31.70816 0 0 1 45.056 0 31.70816 31.70816 0 0 1 0 45.056L227.0208 713.69728a31.59552 31.59552 0 0 1-44.66176 0 31.59552 31.59552 0 0 1 0-44.66175999zM512 675.90656a31.70816 31.70816 0 0 1 31.59552 31.59552001V791.53152A31.70816 31.70816 0 0 1 512 823.296a31.65184 31.65184 0 0 1-31.59552-31.59552v-84.19839999a31.70816 31.70816 0 0 1 31.59552-31.59552001zM914.12480001 8.064000009999972h-96.41984001V355.84000000000003A305.70496 305.70496 0 0 1 512 661.60128 305.70496 305.70496 0 0 1 206.29504 355.84000000000003v-347.83232H109.87519999a31.70816 31.70816 0 0 1-31.53919998-31.5392 31.59552 31.59552 0 0 1 31.53919998-31.76448h804.24960002a31.59552 31.59552 0 0 1 31.59551999 31.59552 31.70816 31.70816 0 0 1-31.59551999 31.76448001zM269.48608 355.84000000000003a242.51392 242.51392 0 0 0 485.02784 0v-340.62336H269.48608z"  horiz-adv-x="1024" />
      
      <glyph glyph-name="yonghuliebiao" unicode="&#58914;" d="M453.33799822 366.174208a234.76451555 234.76451555 0 1 1-234.64800711 234.76451555 234.70626133 234.70626133 0 0 1 234.64800711-234.76451555zM333.62557155 720.65115022a169.40327822 169.40327822 0 1 0-49.5743431-119.71242667 169.28676978 169.28676978 0 0 0 49.5743431 119.71242667zM632.52798578 326.85260800000003H274.20626489a198.06435555 198.06435555 0 0 1-197.24879644-197.24879645 198.06435555 198.06435555 0 0 1 197.24879644-197.24879644h358.32172089a198.06435555 198.06435555 0 0 1 197.24879644 197.24879644 198.06435555 198.06435555 0 0 1-197.24879644 197.24879645z m93.20675555-290.33904355a130.83898311 130.83898311 0 0 0-93.20675555-38.797312H274.20626489a131.88755911 131.88755911 0 0 0 0 263.77511822h358.32172089a131.65454222 131.65454222 0 0 0 93.20675555-224.97780622zM765.17284978 618.4149902199999h162.29626311a32.68061867 32.68061867 0 0 0 32.68061866-32.68061867 32.68061867 32.68061867 0 0 0-32.68061866-32.7971271h-162.29626311a32.68061867 32.68061867 0 0 0-32.68061867 32.68061866 32.68061867 32.68061867 0 0 0 32.68061867 32.79712711zM765.17284978 517.98471111h162.29626311a32.68061867 32.68061867 0 0 0 32.68061866-32.68061866 32.68061867 32.68061867 0 0 0-32.68061866-32.68061867h-162.29626311a32.68061867 32.68061867 0 0 0-32.68061867 32.68061867 32.68061867 32.68061867 0 0 0 32.68061867 32.68061866zM765.17284978 431.53544533h162.29626311a32.68061867 32.68061867 0 0 0 32.68061866-32.68061866 32.68061867 32.68061867 0 0 0-32.68061866-32.68061867h-162.29626311a32.68061867 32.68061867 0 0 0-32.68061867 32.68061867 32.68061867 32.68061867 0 0 0 32.68061867 32.68061866z"  horiz-adv-x="1024" />
      
      <glyph glyph-name="xitongzonglan" unicode="&#58915;" d="M419.37578667 833.0051129H150.24128a77.18684445 77.18684445 0 0 1-76.89557333-76.89557334v-269.13450666A77.18684445 77.18684445 0 0 1 150.24128 410.25422223h269.13450667a77.18684445 77.18684445 0 0 1 76.95382755 76.89557333V756.10953956a77.18684445 77.18684445 0 0 1-76.95382755 76.89557334z m11.65084444-346.03008a11.65084445 11.65084445 0 0 0-11.65084444-11.65084444H150.24128a11.65084445 11.65084445 0 0 0-11.65084445 11.65084444v269.13450666a11.65084445 11.65084445 0 0 0 11.65084445 11.65084445h269.13450667a11.65084445 11.65084445 0 0 0 11.65084444-11.65084445zM684.78202311 431.86653868a77.18684445 77.18684445 0 0 1 108.76063289 0l129.32437333 129.32437333a77.070336 77.070336 0 0 1 0 108.76063289l-129.32437333 129.38262756a77.18684445 77.18684445 0 0 1-108.76063289 0l-129.32437333-129.38262756a77.070336 77.070336 0 0 1 0-108.76063289z m-83.12877511 191.889408l129.38262755 129.32437333a11.65084445 11.65084445 0 0 0 16.252928 0l129.38262756-129.32437333a11.65084445 11.65084445 0 0 0 0-16.31118222l-129.38262756-129.32437334a11.65084445 11.65084445 0 0 0-16.252928 0l-129.38262755 129.32437334a11.65084445 11.65084445 0 0 0 0 16.31118222zM873.70046578 374.60263823H604.62421333a77.18684445 77.18684445 0 0 1-76.95382755-76.89557333v-269.13450667a77.18684445 77.18684445 0 0 1 76.95382755-76.89557333h269.07625245a77.18684445 77.18684445 0 0 1 76.95382755 76.89557333v269.13450667a77.18684445 77.18684445 0 0 1-76.95382755 76.89557333z m11.65084444-346.03008a11.65084445 11.65084445 0 0 0-11.65084444-11.65084444H604.62421333a11.65084445 11.65084445 0 0 0-11.65084444 11.65084444v269.13450667a11.65084445 11.65084445 0 0 0 11.65084444 11.65084444h269.07625245a11.65084445 11.65084445 0 0 0 11.65084444-11.65084444zM419.37578667 374.60263823H150.24128a77.18684445 77.18684445 0 0 1-76.89557333-76.89557333v-269.13450667a77.18684445 77.18684445 0 0 1 76.89557333-76.89557333h269.13450667a77.18684445 77.18684445 0 0 1 76.95382755 76.89557333v269.13450667a77.18684445 77.18684445 0 0 1-76.95382755 76.89557333z m11.65084444-346.03008a11.65084445 11.65084445 0 0 0-11.65084444-11.65084444H150.24128a11.65084445 11.65084445 0 0 0-11.65084445 11.65084444v269.13450667a11.65084445 11.65084445 0 0 0 11.65084445 11.65084444h269.13450667a11.65084445 11.65084445 0 0 0 11.65084444-11.65084444z"  horiz-adv-x="1024" />
      
      <glyph glyph-name="xitongshezhi" unicode="&#58916;" d="M915.70176 309.66761245l-41.18573511 23.76772266a362.98205867 362.98205867 0 0 1 0 101.12932978l41.18573511 23.76772266A77.94414933 77.94414933 0 0 1 944.12982045 564.58808889l-56.73961245 98.33312711a77.88589511 77.88589511 0 0 1-67.57489778 38.85556622 76.83731911 76.83731911 0 0 1-38.68080355-10.36925155l-41.18573512-23.76772267a361.70046578 361.70046578 0 0 1-87.38133333 50.62291911v40.77795556a78.00240355 78.00240355 0 0 1-77.82764089 77.76938666H461.02755555a78.00240355 78.00240355 0 0 1-77.76938666-77.47811555v-40.77795556a359.54505955 359.54505955 0 0 1-87.38133334-50.62291911l-41.36049777 23.47645156a77.94414933 77.94414933 0 0 1-106.25570133-28.48631467L91.46276978 564.58808889a78.00240355 78.00240355 0 0 1 28.48631467-106.25570134l41.1857351-23.76772266a362.98205867 362.98205867 0 0 1 0-101.12932978l-41.1857351-23.76772266A78.00240355 78.00240355 0 0 1 91.46276978 203.41191111l56.79786667-98.33312711a77.94414933 77.94414933 0 0 1 106.25570133-28.48631467l41.18573511 23.76772267a357.44790755 357.44790755 0 0 1 87.38133333-50.56466489v-41.12748089a78.00240355 78.00240355 0 0 1 77.76938667-77.76938667h113.53747911a78.00240355 78.00240355 0 0 1 77.82764089 77.76938667v41.12748089a359.60331378 359.60331378 0 0 1 87.38133333 50.56466489l41.18573511-23.76772267a76.83731911 76.83731911 0 0 1 38.68080356-10.36925155 77.88589511 77.88589511 0 0 1 67.57489778 38.85556622l57.08913778 98.33312711a77.94414933 77.94414933 0 0 1-28.42806045 106.25570134z m-27.02995911-74.21587912l-56.79786667-98.33312711a13.98101333 13.98101333 0 0 0-12.058624-6.815744 13.22370845 13.22370845 0 0 0-6.64098133 1.80588089l-41.18573511 23.76772267-37.51571911 21.67057067-34.07872-26.56392534a296.63049955 296.63049955 0 0 0-71.88571022-41.82653156l-40.19541334-16.42769066v-84.35211378a13.86450489 13.86450489 0 0 0-13.74799644-13.68974222H461.02755555a13.80625067 13.80625067 0 0 0-13.68974222 13.68974222V92.72888889000001l-40.19541333 16.42769066A296.45573689 296.45573689 0 0 0 335.25668978 150.98311110999998l-34.07872 26.738688-37.51571911-21.61231644-41.18573512-23.76772267a15.55387733 15.55387733 0 0 0-18.75785955 5.00986311l-56.73961245 98.10011022a13.92275911 13.92275911 0 0 0 5.00986312 18.75785956l41.18573511 23.76772266 37.39921067 21.61231645-5.82542223 42.81685333a297.795584 297.795584 0 0 0 0 83.30353778l5.82542223 42.81685334-37.39921067 21.61231644-41.18573511 23.70946844a13.86450489 13.86450489 0 0 0-5.00986312 18.69960534l56.73961245 98.33312711a13.98101333 13.98101333 0 0 0 12.11687822 6.815744 13.39847111 13.39847111 0 0 0 6.64098133-1.80588089l41.18573512-23.76772267 37.51571911-21.67057067L335.25668978 617.01688889A294.59160178 294.59160178 0 0 0 407.1424 658.7851662200001l40.13715911 16.19467378V759.33195378a13.86450489 13.86450489 0 0 0 13.68974222 13.68974222h113.53747912a13.86450489 13.86450489 0 0 0 13.74799644-13.68974222v-84.35211378l40.25366756-16.19467378A294.59160178 294.59160178 0 0 0 700.39415467 617.01688889l34.07872-26.738688 37.51571911 21.67057066 41.18573511 23.76772267a13.22370845 13.22370845 0 0 0 6.64098133 1.80588089 13.80625067 13.80625067 0 0 0 12.058624-6.815744l56.79786667-98.33312711a13.86450489 13.86450489 0 0 0-5.00986311-18.69960533l-41.18573511-23.82597689-37.45746489-21.61231645 5.82542222-42.75859911a293.48477155 293.48477155 0 0 0 0-83.30353777l-5.82542222-42.81685334 37.45746489-21.61231644 41.18573511-23.76772267a13.92275911 13.92275911 0 0 0 5.00986311-18.69960533zM517.82542222 573.73400178a198.64689778 198.64689778 0 1 1 198.705152-198.705152A198.64689778 198.64689778 0 0 1 517.82542222 573.73400178z m0-333.33065956a134.56725333 134.56725333 0 1 0 134.62550756 134.56725333 134.56725333 134.56725333 0 0 0-134.62550756-134.56725333z"  horiz-adv-x="1024" />
      
      <glyph glyph-name="zhanghaoguanli" unicode="&#58917;" d="M514.91271111 451.22537245a185.94747733 185.94747733 0 1 1-185.94747733 185.94747733 186.41351111 186.41351111 0 0 1 185.94747733-185.94747733z m0 301.989888a116.04241067 116.04241067 0 1 0-116.04241066-116.04241067 116.15891911 116.15891911 0 0 0 116.04241066 116.04241067zM555.98193778 410.33090845H459.5712a357.50616178 357.50616178 0 0 1-357.15663645-357.09838223V40.300088889999984a104.8576 104.8576 0 0 1 104.8576-104.8576h601.18357334a104.8576 104.8576 0 0 1 104.8576 104.8576v12.93243733a357.50616178 357.50616178 0 0 1-357.33139911 357.09838223z m287.19331555-370.03081956a34.95253333 34.95253333 0 0 0-34.95253333-34.95253334H207.03914667a34.95253333 34.95253333 0 0 0-34.95253334 34.95253334v12.93243733A287.54284089 287.54284089 0 0 0 459.5712 340.42584178000004h96.64375467a287.48458667 287.48458667 0 0 0 287.19331555-287.19331556z"  horiz-adv-x="1024" />
      
      <glyph glyph-name="add" unicode="&#58983;" d="M912.88927081 421.58336918H549.58336918V784.88927081c0 20.04446395-17.53890522 37.58336918-37.58336918 37.58336918s-37.58336918-17.53890522-37.58336918-37.58336918v-363.30590163H111.11072919c-20.04446395 0-37.58336918-17.53890522-37.58336918-37.58336918s17.53890522-37.58336918 37.58336918-37.58336918h363.30590163V-16.88927080999997c0-20.04446395 17.53890522-37.58336918 37.58336918-37.58336918s37.58336918 17.53890522 37.58336918 37.58336918V346.41663082H912.88927081c20.04446395 0 37.58336918 17.53890522 37.58336918 37.58336918s-17.53890522 37.58336918-37.58336918 37.58336918z"  horiz-adv-x="1024" />
      
      <glyph glyph-name="form" unicode="&#58902;" d="M672.00000031 743.83999969h120c46.24000031 0 81.52000031-40.08 81.51999938-87.84v-624.15999938c0-47.71999969-35.32000031-87.88000031-81.51999938-87.88000031H234.39999969c-46.24000031 0-81.55999969 40.12000031-81.55999969 87.88000031V655.99999969c0 47.76 35.20000031 87.84 81.55999969 87.84H351.99999969V804a19.99999969 19.99999969 0 0 0 40.00000031 0v-160.00000031a19.99999969 19.99999969 0 0 0-40.00000031 0V703.84000031H234.39999969c-22.99999969 0-41.56000031-21.07999969-41.55999938-47.84000062v-624.15999938c0-26.71999969 18.6-47.88 41.55999938-47.88H792.00000031c22.92 0 41.52 21.19999969 41.52 47.88V655.99999969c0 26.71999969-18.55999969 47.83999969-41.52 47.84000062h-120V643.99999969a19.99999969 19.99999969 0 1 0-40.00000031 0v160.00000031a19.99999969 19.99999969 0 1 0 40.00000031 0v-60.16000031zM451.88 703.99999969h119.80000031a19.99999969 19.99999969 0 1 1 0 40.00000031h-119.80000031a19.99999969 19.99999969 0 1 1 0-40.00000031zM352.28 504h319.99999969a19.99999969 19.99999969 0 0 1 0 40.00000031h-319.99999969a19.99999969 19.99999969 0 0 1 0-40.00000031zM352.28 343.99999969h160.00000031a19.99999969 19.99999969 0 1 1 0 40.00000031h-160.00000031a19.99999969 19.99999969 0 1 1 0-40.00000031zM352.28 184.00000031000002h319.75999969a19.99999969 19.99999969 0 1 1 0 39.99999938H352.28a19.99999969 19.99999969 0 1 1 0-39.99999938z"  horiz-adv-x="1024" />
      
      <glyph glyph-name="icon-test" unicode="&#58882;" d="M893.33333333 684h-150a150 150 0 1 1-300 0H293.33333333a60 60 0 0 1-60-60v-150a150 150 0 1 1 0-300V24a60 60 0 0 1 60-60h210v60a90 90 0 0 0 180 0v-60H893.33333333a60 60 0 0 1 60 60v210h-60a90 90 0 0 0 0 180h60V624a60 60 0 0 1-60 60z m-150-360a150 150 0 0 1 150-150V24h-150a150 150 0 1 1-300 0H293.33333333v210H233.33333333a90 90 0 1 0 0 180h60V624h210V684a90 90 0 0 0 180 0v-60H893.33333333v-150A150 150 0 0 1 743.33333333 324z"  horiz-adv-x="1024" />
      
      <glyph glyph-name="mima" unicode="&#58891;" d="M823.1328125 496.5h-29.8828125v56.25c0 37.79296875-7.47070313 74.61914063-22.23632813 109.24804688-14.15039063 33.48632813-34.54101563 63.54492188-60.38085937 89.38476562-25.83984375 25.83984375-55.8984375 46.14257813-89.38476563 60.38085938C586.61914063 826.52929687 549.79296875 834 512 834s-74.61914063-7.47070313-109.24804688-22.23632813C369.265625 797.61328125 339.20703125 777.22265625 313.3671875 751.3828125s-46.14257813-55.8984375-60.38085938-89.38476563C238.22070313 627.36914063 230.75 590.54296875 230.75 552.75v-56.25h-29.8828125c-45.52734375 0-82.6171875-37.08984375-82.6171875-82.6171875v-397.265625c0-45.52734375 37.08984375-82.6171875 82.6171875-82.6171875h622.265625c45.52734375 0 82.6171875 37.08984375 82.6171875 82.6171875V413.8828125c0 45.52734375-37.08984375 82.6171875-82.6171875 82.6171875z m-539.6484375 56.25c0 60.73242188 23.81835938 118.03710938 67.1484375 161.3671875S451.26757812 781.265625 512 781.265625s118.03710938-23.81835938 161.3671875-67.1484375C716.69726563 670.78710938 740.515625 613.48242188 740.515625 552.75v-56.25H283.484375v56.25z m569.53125-536.1328125c0-16.43554688-13.44726563-29.8828125-29.8828125-29.8828125H200.8671875c-16.43554688 0-29.8828125 13.44726563-29.8828125 29.8828125V413.8828125c0 16.43554688 13.44726563 29.8828125 29.8828125 29.8828125h622.265625c16.43554688 0 29.8828125-13.44726563 29.8828125-29.8828125v-397.265625zM512 299.625c-14.50195313 0-26.3671875-11.86523438-26.3671875-26.3671875v-116.015625c0-14.50195313 11.86523438-26.3671875 26.3671875-26.3671875s26.3671875 11.86523438 26.3671875 26.3671875V273.2578125c0 14.50195313-11.86523438 26.3671875-26.3671875 26.3671875z"  horiz-adv-x="1024" />
      
      <glyph glyph-name="shijian" unicode="&#58982;" d="M512 8.533333330000005c207.36 0 375.46666667 168.10666667 375.46666667 375.46666667S719.36 759.46666667 512 759.46666667 136.53333333 591.36 136.53333333 384s168.10666667-375.46666667 375.46666667-375.46666667z m0-68.26666666C266.92266667-59.73333333000005 68.26666667 138.92266667 68.26666667 384S266.92266667 827.73333333 512 827.73333333s443.73333333-198.656 443.73333333-443.73333333-198.656-443.73333333-443.73333333-443.73333333zM512 349.86666667h204.8a34.13333333 34.13333333 0 0 0 0-68.26666667h-238.93333333a34.13333333 34.13333333 0 0 0-34.13333334 34.13333333V622.93333333a34.13333333 34.13333333 0 0 0 68.26666667 0v-273.06666666z"  horiz-adv-x="1024" />
      
      <glyph glyph-name="riqishijian" unicode="&#59144;" d="M679.29417682 790.28585782a23.89916846 23.89916846 0 0 0 23.51678169-19.59731866L703.19334529 766.38668937v-47.79833572h143.39500836a95.59667265 95.59667265 0 0 0 95.59667143-95.59667265l0.0477988-210.02588918A336.30909357 336.30909357 0 0 1 862.36180449 503.49583989H894.38668937V622.991681a47.79833571 47.79833571 0 0 1-42.20593038 47.46374775L846.58835365 670.79001671h-143.39500836v-95.59667142a23.89916846 23.89916846 0 0 0-47.41595014-4.30185101L655.39500836 575.19334529V670.79001671h-238.99168101v-95.59667142a23.89916846 23.89916846 0 0 0-47.41594893-4.30185101L368.60499164 575.19334529V670.79001671H177.41164635a47.79833571 47.79833571 0 0 1-47.46374774-42.20593037L129.61331063 622.991681v-119.4480423h318.8627004a336.59588396 336.59588396 0 0 1-49.32788285-47.79833571H129.61331063V49.411646349999955a47.79833571 47.79833571 0 0 1 42.20593038-47.46374774L177.41164635 1.6133106300000009l243.91491038-0.09559639c18.59355231-18.16336794 39.29023252-34.27140676 61.70765145-47.79833693L177.41164635-46.185025079999946a95.59667265 95.59667265 0 0 0-95.59667143 95.59667143V622.991681a95.59667265 95.59667265 0 0 0 95.59667143 95.59667265h191.19334529V766.38668937a23.89916846 23.89916846 0 0 0 47.41594894 4.30184979L416.40332735 766.38668937v-47.79833572h238.99168101V766.38668937a23.89916846 23.89916846 0 0 0 23.89916846 23.89916845zM655.39500836 527.39500836a286.79001671 286.79001671 0 1 0 0-573.58003344 286.79001671 286.79001671 0 0 0 0 573.58003344z m0-47.79833571a238.991681 238.991681 0 1 1 0-477.98336202 238.991681 238.991681 0 0 1 0 477.98336202z m-47.79833571-71.69750419a23.89916846 23.89916846 0 0 0 23.51678168-19.59731867l0.38238556-4.30184979v-161.74956908l134.31332561-106.30350014a23.89916846 23.89916846 0 0 0 6.3093801-29.96955697l-2.38991709-3.58487503a23.89916846 23.89916846 0 0 0-29.96955697-6.30938009l-3.58487503 2.38991587-143.39500836 113.4254526a23.89916846 23.89916846 0 0 0-8.69929718 14.43509771l-0.38238679 4.3018498V384a23.89916846 23.89916846 0 0 0 23.89916847 23.89916846z"  horiz-adv-x="1024" />
      
      <glyph glyph-name="duohangshuru" unicode="&#59093;" d="M843.40179753 825.86906294H180.59820247c-60.75699579 0-110.46726541-49.71026963-110.46726541-110.46726541v-662.80359506c0-60.75699579 49.71026963-110.46726541 110.46726541-110.46726541h662.80359506c60.75699579 0 110.46726541 49.71026963 110.46726541 110.46726541V715.4017975300001c0 60.75699579-49.71026963 110.46726541-110.46726541 110.46726541z m44.1869059-773.27086047a44.73924267 44.73924267 0 0 0-44.1869059-44.1869059H180.59820247a44.73924267 44.73924267 0 0 0-44.1869059 44.1869059V715.4017975300001c0 23.97139626 20.27074371 44.18690591 44.1869059 44.1869059h662.80359506c23.97139626 0 44.18690591-20.27074371 44.1869059-44.1869059v-662.80359506zM759.39144187 377.15102908999995h-179.50930745a33.14017975 33.14017975 0 1 1 0-66.28035951h179.50930745a33.14017975 33.14017975 0 1 1 0 66.28035951z m0-166.58463603h-179.50930745a33.14017975 33.14017975 0 0 1 0-66.28035951h179.50930745a33.14017975 33.14017975 0 1 1 0 66.28035951z m-179.50930745 346.86721388a33.14017975 33.14017975 0 0 1 0 66.28035951H241.57613322a33.14017975 33.14017975 0 1 1 0-66.28035951h136.04043788v-380.00739363a33.14017975 33.14017975 0 1 1 66.28035951 0V557.43360694h135.98520381z"  horiz-adv-x="1024" />
      
      <glyph glyph-name="danhangshuru" unicode="&#59094;" d="M880.24263113 825.86906294C920.72888319 825.86906294 953.86906294 792.72888319 953.86906294 752.2426311300001v-736.48526226C953.86906294-24.728883190000033 920.72888319-57.86906294000005 880.24263113-57.86906294000005H143.75736887C103.27111681-57.86906294000005 70.13093706-24.728883190000033 70.13093706 15.75736887000005V752.2426311300001C70.13093706 792.72888319 103.27111681 825.86906294 143.75736887 825.86906294h736.48526226z m4.91579289-68.71063892H138.84157598v-746.31684804h746.31684804V757.15842402z m-189.06472549-225.90555907h-147.25286494V163.06546788000003a36.84083359 36.84083359 0 0 0-73.68166718 0V531.30809901H327.90630147a36.84083359 36.84083359 0 1 0 0 73.62643311h368.18739706a36.84083359 36.84083359 0 1 0 0-73.62643311z"  horiz-adv-x="1024" />
      
      <glyph glyph-name="jisuanzujian" unicode="&#59095;" d="M204.51436595-53.22943778000001a134.10726116 134.10726116 0 0 0-134.16249522 134.16249394V691.26470038A134.10726116 134.10726116 0 0 0 204.51436595 825.31672748h610.33164292a134.43866297 134.43866297 0 0 0 134.05202711-134.10726117v-610.33164421a134.10726116 134.10726116 0 0 0-134.10725986-134.10725988H204.45913189z m-0.55233676 815.24842193c-46.23055075 0-74.89680624-24.52373301-74.89680624-70.80951784v-610.82874691c0-46.23055075 28.66625549-74.39970355 74.89680624-74.39970355h610.88397968c46.23055075 0 75.17297397 28.1691528 75.17297528 74.39970355V691.26470038c0 46.23055075-28.94242322 70.75428377-75.22820803 70.75428377H203.96202919z m71.25138647-616.62827837a24.96560165 24.96560165 0 0 0-17.6747621 42.58513099l43.63456915 43.6898032-43.63456915 43.63457043a24.79990075 24.79990075 0 0 0 0 35.3495255 24.74466798 24.74466798 0 0 0 17.6747621 7.29083956c6.73850278 0 12.97990417-2.59598032 17.67476211-7.23560678l43.63457044-43.63456915 43.63457044 43.63456915a24.79990075 24.79990075 0 0 0 35.3495242 0 24.79990075 24.79990075 0 0 0 0-35.34952421l-44.1869059-43.63457043 44.1869059-43.74503727a24.79990075 24.79990075 0 0 0 0-35.34952551 24.74466798 24.74466798 0 0 0-17.6747621-7.23560548 24.74466798 24.74466798 0 0 0-17.6747621 7.23560548l-43.63457044 43.68980451-43.63457044-43.63457044a26.6778447 26.6778447 0 0 0-17.67476211-7.29083955z m59.76279039 302.51460708a24.96560165 24.96560165 0 0 0-24.96560164 24.96560294V535.3401546499999h-62.41400477a24.96560165 24.96560165 0 0 0 0 49.87597051h62.41400477v62.41400478a24.63419985 24.63419985 0 0 0 25.95980704 23.86092942c13.03513695-0.4971027 23.97139626-10.88102525 23.97139755-23.91616348v-62.35877072h62.41400477a24.96560165 24.96560165 0 0 0 0-49.87597051h-62.41400477v-62.41400607a24.96560165 24.96560165 0 0 0-24.96560295-24.96560165z m261.47601826 87.37960771a24.96560165 24.96560165 0 0 0 0 49.87597053h174.64874731a24.96560165 24.96560165 0 0 0 0-49.87597053H596.50745837z m87.32437365-391.99309241a24.96560165 24.96560165 0 1 0 24.96560294 24.96560165c0-8.8373817-4.69485923-17.12242665-12.48280147-21.81728457a24.68943392 24.68943392 0 0 0-12.48280147-3.14831708z m0 130.4618401a24.96560165 24.96560165 0 1 0 24.96560294 24.96560294c0-8.8373817-4.69485923-17.12242665-12.48280147-21.81728587a24.68943392 24.68943392 0 0 0-12.48280147-3.14831707z m-87.26913959-65.45185501a24.63419985 24.63419985 0 0 0-23.97139626 25.95980833 24.52373301 24.52373301 0 0 0 23.9161622 23.9161622h174.64874731c14.08457639-0.55233676 24.46849895-11.93046471 23.91616347-25.95980705a24.52373301 24.52373301 0 0 0-23.91616347-23.91616348H596.50745837z"  horiz-adv-x="1024" />
      
      <glyph glyph-name="kaiguan" unicode="&#59096;" d="M354.37767703 606.34923615a219.03587555 219.03587555 0 0 1-155.60349984-64.46800593 219.29478281 219.29478281 0 0 1-64.46800593-155.60349984 219.03587555 219.03587555 0 0 1 64.46800593-155.65528178 219.29478281 219.29478281 0 0 1 155.60349984-64.41622521 219.03587555 219.03587555 0 0 1 155.65528178 64.41622521 219.29478281 219.29478281 0 0 1 64.4162252 155.65528178 219.03587555 219.03587555 0 0 1-64.4162252 155.60349984 219.29478281 219.29478281 0 0 1-155.65528178 64.46800593z m0 57.8917511a277.96325808 277.96325808 0 1 0 0-555.9782969A277.96325808 277.96325808 0 0 0 354.37767703 664.24098725zM354.37767703 664.24098725h324.35950933a277.96325808 277.96325808 0 1 0 0-555.9782969H354.37767703A277.96325808 277.96325808 0 1 0 354.37767703 664.24098725z m0-57.8917511a220.07150577 220.07150577 0 0 1 0-440.14301276h324.35950933a220.07150577 220.07150577 0 1 1 0 440.14301276H354.37767703z"  horiz-adv-x="1024" />
      
      <glyph glyph-name="xialaxuanze" unicode="&#59098;" d="M162.5368045 825.86906294h693.18209361c50.98064276 0 92.35063468-41.42522469 92.35063338-92.40586744v-693.18209361c0-50.98064276-41.36999063-92.35063468-92.40586746-92.35063338H162.5368045C111.55616175-52.06953149000003 70.13093706-10.699540849999948 70.13093706 40.33633597000005V733.4631955C70.13093706 784.44383825 111.55616175 825.86906294 162.5368045 825.86906294z m0-64.67858328a27.72728416 27.72728416 0 0 1-27.72728416-27.72728416v-693.18209361c0-15.24448269 12.42756741-27.6720501 27.72728416-27.67205009h693.18209361a27.72728416 27.72728416 0 0 1 27.67205009 27.72728417V733.4631955a27.72728416 27.72728416 0 0 1-27.72728417 27.72728416H162.5368045z m120.35408657-219.49845809l225.40845508-240.54247096 225.62939135 240.59770502a27.61681602 27.61681602 0 0 0 42.64036377-1.657009 38.00073988 38.00073988 0 0 0-1.4913081-48.7712983s-247.44667593-263.74059677-247.99901139-264.23769946a27.28541423 27.28541423 0 0 0-39.38157983 1.76747581l-246.0106019 262.47022365a38.05597265 38.05597265 0 0 0-1.21513906 48.4398965 27.61681602 27.61681602 0 0 0 42.41943008 1.93317674z"  horiz-adv-x="1024" />
      
      <glyph glyph-name="pingfen" unicode="&#59097;" d="M730.17284961-47.71922551c-13.97410956 0-29.71569494 4.03205564-44.3526068 11.37812795l-173.70977597 86.82727095L337.46171953-36.12016259999996c-13.53223964-7.1803727-28.66625549-10.99149339-44.021205-10.93625932-20.16027558 0-39.87868255 6.35186821-56.22783874 18.22709887l-0.4971027 0.38663457a97.87399711 97.87399711 0 0 0-37.44840313 94.22857863l0.05523407 0.38663457 35.73616007 184.59080121-135.3776343 126.87165569-0.38663457 0.38663456a100.80138051 100.80138051 0 0 0-25.5179384 97.26642758l0.38663457 1.21514036c11.59906291 36.12279593 41.14905696 61.41979938 77.21661883 66.28035951l189.72752908 34.46578694 85.72259873 173.59930784A96.65885804 96.65885804 0 0 0 512.1657009 804.53572961c18.06139796 0 35.79139413-5.24719469 51.31204455-15.13401456 15.29971675-9.55541807 27.39588236-23.47429357 34.63148785-40.04438473l84.72839333-171.99753292 190.39033268-33.41634748a94.61521319 94.61521319 0 0 0 76.00147847-66.39082633c11.10196021-34.521021 1.93317671-72.35605869-23.7504613-97.92923118l-0.71803765-0.71803765-135.98520383-128.25249565 34.35531881-185.08790393a95.60941858 95.60941858 0 0 0-37.00653319-93.67624186c-15.02354772-12.48280147-35.3495255-19.60794012-56.00690379-19.60793883z m-5.41289559 67.108864c6.07569919-2.87214934 10.66009158-3.47971888 11.9304647-3.47971887a16.95672574 16.95672574 0 0 1 10.60485753 3.31401797l1.04943946 0.82850449a23.19812583 23.19812583 0 0 1 9.72111896 22.97719087v0.11046684l-42.80606596 230.87658605 14.96831497 14.96831494 155.3169762 145.70632279a23.52952763 23.52952763 0 0 1 5.7442974 24.19233122l-0.33140181 0.93897262-0.27616773 0.93897133a20.98878007 20.98878007 0 0 1-16.73579077 14.63691316l-1.38084126 0.22093367-234.90864039 40.81765515L532.43644462 730.52266192l-0.38663587 0.88373856c-2.76168122 6.35186821-11.59906291 11.76476382-19.44223921 11.76476382a23.14289175 23.14289175 0 0 1-20.21550966-13.47700687l-0.05523278-0.16570089-105.60670657-212.53901905-236.06854667-42.91653278c-11.04672615-1.38084126-16.12822124-9.22401627-18.5032679-15.85205352a28.94242322 28.94242322 0 0 1 6.62803596-25.18653661l172.49463562-160.50893684-6.95943775-20.87831324-40.21008434-208.89359928a23.58476169 23.58476169 0 0 1 9.38971716-22.4248554l0.22093496-0.11046683a21.43065001 21.43065001 0 0 1 12.70373515-4.03205564 21.04401413 21.04401413 0 0 1 10.10775482 2.48551349l1.15990629 0.55233675 214.52743114 106.43520978 212.53901905-106.26950888z"  horiz-adv-x="1024" />
      
      <glyph glyph-name="danxuan" unicode="&#59099;" d="M510.57777778-56.143012750000025a440.14301275 440.14301275 0 1 0 0 880.2860255 440.14301275 440.14301275 0 0 0 0-880.2860255z m-0.72494103 59.3934163a381.47453747 381.47453747 0 1 1 0 762.94907616 381.47453747 381.47453747 0 0 1 0-762.94907616z m0 88.02860207a293.44593541 293.44593541 0 1 0 0 586.89187082 293.44593541 293.44593541 0 0 0 0-586.89187082z m0 58.720256a234.72567941 234.72567941 0 1 1 0 469.45135882 234.72567941 234.72567941 0 0 1 0-469.45135882z"  horiz-adv-x="1024" />
      
      <glyph glyph-name="duoxuan" unicode="&#59100;" d="M886.31833031 825.53766114c36.5094318 0 66.11465861-29.60522682 66.11465861-66.16989137v-749.68610008c0-36.5094318-29.60522682-66.11465861-66.11465861-66.11465861H136.63223023a66.16989267 66.16989267 0 0 0-66.16989137 66.11465861V759.36776977c0 36.56466455 29.60522682 66.16989267 66.16989137 66.16989137h749.68610008z m0-66.16989137H136.63223023v-749.68610008h749.68610008V759.36776977z m-440.87485755-500.58241517l261.53125103 301.74133665a33.0849457 33.0849457 0 0 0 52.08531626-40.65195427l-2.09887762-2.65121437-287.65676024-331.89890023-2.43028071-2.31981259a35.3495255 35.3495255 0 0 0-3.20354985-2.37504664l-2.81691528-1.657009-2.43028071-1.21513905-3.03784895-1.10467352-2.31981258-0.6628036-2.20934576-0.44186863-2.48551347-0.3314018-3.03785025-0.16570088-3.14831707 0.16570088-3.92158751 0.60756954-3.20355114 0.88373856-1.43607403 0.4971027-3.03785024 1.32560718-2.81691529 1.54654215-2.7616812 1.98841078-2.48551348 2.09887763-2.31981259 2.43027942-132.28455126 154.37800487a33.0849457 33.0849457 0 0 0 47.88755973 45.5125131l2.31981259-2.48551348 107.31894962-125.2146454 261.53125103 301.74133665-261.53125103-301.74133665z"  horiz-adv-x="1024" />
      
      <glyph glyph-name="slider" unicode="&#58918;" d="M195.2 708.8v-53.7c0-5.8-4.7-10.5-10.5-10.5H75.1c-5.8 0-10.5 4.7-10.5 10.5v53.7c0 5.8 4.7 10.5 10.5 10.5h109.6c5.8 0 10.5-4.7 10.5-10.5zM567.8 411v-54.3c0-5.6-4.5-10.1-10.1-10.1H74.8c-5.6 0-10.1 4.5-10.1 10.1V411c0 5.6 4.5 10.1 10.1 10.1h482.9c5.6 0 10.1-4.5 10.1-10.1z m-298-299v-52.9c0-6-4.8-10.8-10.8-10.8H75.5c-6 0-10.8 4.8-10.8 10.8v53c0 6 4.8 10.8 10.8 10.8l183.5-0.1c5.9 0 10.8-4.8 10.8-10.8z m130.4 681.8c10.1 0 18.8-3.7 26.3-11.1 7.3-7.3 11.1-16.2 11.1-26.3v-149.1c0-10.1-3.7-18.8-11.1-26.3-6.9-7.1-16.4-11.1-26.3-11.1h-149c-10.1 0-18.8 3.7-26.3 11.1-7.1 6.9-11.2 16.4-11.1 26.3V756.4c0 10.1 3.7 18.8 11.1 26.3 7.3 7.3 16 11.1 26.3 11.1h149z m74.5-596.4c10.1 0 18.8-3.7 26.3-11.1 7.3-7.3 11.1-16.2 11.1-26.3v-149c0-10.1-3.7-18.8-11.1-26.3-6.9-7.1-16.4-11.1-26.3-11.1H325.5c-10.1 0-18.8 3.7-26.3 11.1-7.1 6.9-11.1 16.4-11.1 26.3V160.10000000000002c0 10.1 3.7 18.8 11.1 26.3 7.3 7.3 16 11.1 26.3 11.1l149.2 0.1v-0.2z m484.6 511.2v-53.2c0-5.9-4.8-10.7-10.7-10.7H466.9c-5.9 0-10.7 4.8-10.7 10.7v53.2c0 5.9 4.8 10.7 10.7 10.7h481.7c5.9 0 10.7-4.8 10.7-10.7z m0-595.9v-54.3c0-5.6-4.5-10.1-10.1-10.1H540.7c-5.6 0-10.1 4.5-10.1 10.1v54.4c0 5.6 4.5 10.1 10.1 10.1l408.6-0.1c5.5 0 10-4.5 10-10.1zM772.8 495.6c10.1 0 18.8-3.7 26.3-11.1 7.3-7.3 11.1-16.2 11.1-26.3v-149.1c0-10.1-3.7-18.8-11.1-26.3-6.9-7.1-16.4-11.1-26.3-11.1h-149c-10.1 0-18.8 3.7-26.3 11.1-7.1 6.9-11.2 16.4-11.1 26.3V458.4c0 10.1 3.7 18.8 11.1 26.3 7.3 7.3 16.2 11.1 26.3 11.1 0-0.1 149-0.2 149-0.2z m186.5-85.4v-52.7c0-6-4.9-10.9-10.9-10.9H839.8c-6 0-10.9 4.9-10.9 10.9v52.7c0 6 4.9 10.9 10.9 10.9h108.6c6 0 10.9-4.9 10.9-10.9z"  horiz-adv-x="1024" />
      
      <glyph glyph-name="color" unicode="&#58919;" d="M689.7 491.3m-44.7 0a44.7 44.7 0 1 1 89.4 0 44.7 44.7 0 1 1-89.4 0ZM533.4 536m-44.7 0a44.7 44.7 0 1 1 89.4 0 44.7 44.7 0 1 1-89.4 0ZM377 508.3m-44.7 0a44.7 44.7 0 1 1 89.4 0 44.7 44.7 0 1 1-89.4 0ZM265.4 441.3c-24.7 0-44.7-20-44.7-44.7 0-24.7 20-44.7 44.7-44.7 24.7 0 44.7 20 44.7 44.7 0 24.7-20 44.7-44.7 44.7zM707.2 411.7s-45.3-23.2-47.1-59.6c-1.8-36.4-38.6-62.8-50.8-66.1-12.3-3.3 179.4-10.8 165.3 66.9l-67.4 58.8zM791.4 387c7-6.4 8.7-15.4 3.9-20-4.8-4.7-14.3-3.3-21.3 3.1l-46.2 41.6c-7 6.4-8.7 15.4-3.9 20 4.8 4.7 14.3 3.3 21.3-3.1l46.2-41.6zM951.6 605.5c-12.5 8-23.8 0.8-28.6-1.8-14.5-9.2-118.2-104.2-163.2-148.1-5.5-7-9.3-12.4 17.3-37.4 22.4-21.1 32.8-19.7 44.2-10.6 18.9 17.8 99.3 123.5 129 163.8 4.8 6.7 14.8 25.5 1.3 34.1zM793.6 332.20000000000005c-32.7-137.9-168.6-219.4-314-219.4-85.5 0-140.1 40.8-145.3 83-8.5 69.3-62.3 88.3-103.8 83-62.3-7.9-97.9-12.7-97.9 51.9 0 163.3 161.9 303.4 336.6 323 105.5 11.8 214.7-21.5 279.4-89.5 12.3-12.9 32.2-14.7 46.5-4.1 0.2 0.1 0.4 0.3 0.6 0.4 18.5 13.3 20.4 37.6 4.2 53.7-78.6 78.2-206.6 114.7-330.8 100.5C253.1 690 57.2 543.5 64.2 299.5c2-68.4 69-100.5 145.3-83 60.9 13.9 65.7-40.5 78.3-83.4 14.8-50 110.1-82.7 192.3-82.7 194.1 0 337.4 109.9 378.8 268.2 4.2 16.2-18 26.2-26.5 27.3-12.4 1.7-34.8 3.4-38.8-13.7zM511.5 337.4h-3.2c-40.1-0.9-71.9-34.1-71.1-74.2 0.9-40.1 34.1-71.9 74.2-71.1 38.4 1.2 69.2 32 70.4 70.4 1.3 40.1-30.2 73.6-70.3 74.9z"  horiz-adv-x="1024" />
      
      <glyph glyph-name="shangchuan" unicode="&#58920;" d="M550.1 363c-4.2 4.9-9.1 9.1-14.7 12.2-6.6 3.6-13.4 5.5-21.4 5.5-12.3 0-23.5-4.5-31.5-12.9L356.1 222.10000000000002c-4.8-8.4-9.6-17.9-9.6-30.8 0-23 19.2-43.2 41.1-43.2 12.3 0 24 6.7 32 15.1l53.3 61.1v-219.7c0-26.4 17.1-43.2 41.1-43.2 22.9 0 41.6 16.8 41.6 43.2V224.39999999999998l53.3-61.1c8-8.4 17.1-15.1 29.3-15.1 25.1 0 43.7 20.2 43.7 43.2 0.1 11.6-4.4 22.7-12.3 30.8L550.1 363zM811.1 591.4c-46.9 125-160 214.7-297.1 214.7-135.6 0-251.5-89.1-298.8-213.5-0.3-0.8-0.9-1.4-1.7-1.6-84.2-25.7-147-110.5-147-207 0-120 94.9-217.5 209-217.5 25.1 0 43.7 20.7 43.7 43.7 0 26.3-18.7 43.7-43.7 43.7-67.7 0-123.7 57.7-123.7 130 0 36.6 12.4 70.7 36.8 93.7 0.7 1 1.5 2 2.2 2.8 2.1 2.5 5 5.3 8.3 7.8 2.5 2.5 5.5 5 8.8 7.2 3.1 2.6 6.7 5.1 10.4 7 2.4 1.7 5 3.2 7.7 4.5 5.6 3.9 11.7 6.4 18.4 7.8 4.2 1.9 8.7 3 13.6 3.4 3.4 0.4 6.8 0.5 10.2 0.4 4 0.1 8-0.1 11.9-0.6v0.3 0.9c-0.2 8.4 1.3 16.3 4.3 23.9 0.4 1 0.8 2 1.1 3 0.4 1 0.7 2 1.1 3 0.5 1.6 1.1 3.1 1.8 4.7 1.4 4.2 3.2 8.2 5.4 12l6.2 12.5c0 0.1 0.1 0.2 0.1 0.3l0.8 1.3c0.1 0.2 0.2 0.4 0.3 0.5 0.5 1.3 1.4 1.5 1.5 2.7 0 0.3 0.2 0.6 0.3 0.9l6.7 14.5c0 0.1 0.1 0.2 0.1 0.2C350.9 670.3 426.6 719 514 719c83.5 0 157.9-46.7 199.5-116l1.2-1.4c0.6-0.7 1.2-1.5 1.8-2.2 2.8-3.6 5.3-7.4 7.6-11.4 6.2-8.3 10.8-17.9 13.9-27.6l0.3-1.2c0.9-2.2 1.7-4.5 2.4-6.7 0.6-1.9 1.1-4 1.5-6 0-0.2 0.1-0.4 0.2-0.6 0.5-1.3 0.9-2.6 1.3-3.8 2.2-6.8 3-14.6 2.5-22.4 0.5-1.7 1-3.4 1.4-5.2h2.5c1.4 0.2 2.8 0.5 4.2 0.6 3 0.4 6.1 0.5 9.1 0.5 4.7 0.1 9.3-0.3 13.9-1.2 2.1-0.3 4.2-0.7 6.3-1.1 0.7-0.2 1.3-0.3 2-0.5s1.3-0.4 2-0.6h0.1c0.7-0.2 1.4-0.4 2.1-0.7h0.1c0.7-0.2 1.3-0.4 2-0.7h0.1c0.7-0.3 1.4-0.5 2-0.8 0.2-0.1 0.4-0.2 0.5-0.3 0.9-0.3 1.9-0.7 2.8-1 5.4-2.9 10.7-5.8 16.1-8.7 0.8-0.5 1.6-1.1 2.4-1.6 0.4-0.2 0.7-0.5 1-0.8 0.3-0.2 0.6-0.5 0.9-0.7 0.8-0.6 1.6-1.3 2.4-1.9l0.5-0.3c0.9-0.6 1.9-1.2 2.8-1.9 0.3-0.2 0.6-0.5 0.9-0.7 0.6-0.4 1.2-0.9 1.7-1.3 0.4-0.3 0.7-0.6 1.1-0.9 0.4-0.3 0.7-0.6 1.1-0.9 0.7-0.6 1.4-1.2 2.1-1.9l0.7-0.7c1.2-1.2 2.4-2.4 3.5-3.7 0.3-0.3 0.5-0.6 0.8-0.9 0.5-0.6 1.1-1.2 1.6-1.9 0.2-0.2 0.4-0.5 0.6-0.7 0.4-0.6 0.9-1.1 1.3-1.7 0.6-0.7 1.1-1.3 1.6-2 0-0.1 0.1-0.1 0.1-0.2 0.5-0.7 1.1-1.4 1.6-2.1 0.1-0.1 0.1-0.2 0.2-0.3 0.5-0.7 1.1-1.5 1.6-2.2 20.4-22.7 32.5-53.6 32.5-86.7 0-72.3-56-130-126.4-130-21.9 0-41.6-17.4-41.6-43.7 0-23 19.7-43.7 41.6-43.7 116.8 0 209.1 97.6 209.1 217.5 0.2 97.4-60.6 181.5-148 207.3z"  horiz-adv-x="1024" />
      
      <glyph glyph-name="number" unicode="&#58923;" d="M269.1 181.60000000000002H87c-13.1 0-23.6-10.6-23.6-23.6 0-13.1 10.6-23.6 23.6-23.6h182.8c14.6 0 22.6 14.2 22.6 22.7v0.4c0 15-12.1 24.1-23.3 24.1zM654.6 181.60000000000002H368.1c-15.1 0-27.4-10.6-27.4-23.6 0-13.1 12.3-23.6 27.4-23.6h287.3c16.9 0 26.2 14.2 26.2 22.7v0.4c0 15-14 24.1-27 24.1zM935.7 181.60000000000002H753.6c-13.1 0-23.6-10.6-23.6-23.6 0-13.1 10.6-23.6 23.6-23.6h182.8c14.6 0 22.6 14.2 22.6 22.7v0.4c0 15-12.1 24.1-23.3 24.1zM96.7 474.5c42.5 18.5 77.1 39.2 103.7 62.3 3.5 3.1 9.1 0.5 9.1-4.2v-283.3h51.2c2.3 0 4.2 1.9 4.2 4.2V626c0 3.1-2.5 5.7-5.7 5.7h-33.3c-2.1 0-4-1.1-5-3-22.4-41.5-64.5-76.6-126.3-105.3-0.9-0.4-1.5-1.3-1.5-2.3v-44.3c0-1.8 1.9-3.1 3.6-2.3zM350.3 251.29999999999995h243.5c8.1 0 14.7 6.6 14.7 14.7v16.5c0 6.2-5.1 11.3-11.3 11.3l-178.4 5c-1.2 0-1.9 1.4-1.3 2.4l1.6 2.4c23.4 37 51.9 61.6 98.8 93.6 66.5 43.1 96.7 86.8 90.5 131.2-5 67.7-45 102.8-120.1 105.3-70.6 0-115.9-30.9-135.9-92.6-1.6-4.9 1.2-10.2 6.1-11.8l33.4-10.8c5-1.6 10.5 1.2 11.9 6.3 12.2 41.8 37.2 62.7 75.1 62.7 45.5-1.3 69-22.8 70.2-64.7 4.9-27.1-24-62.8-86.8-107.2-52.5-40.2-91.7-84.1-117.5-131.6-0.5-0.9-0.7-1.9-0.7-2.9v-23.9c0.2-3.2 2.9-5.9 6.2-5.9zM791.4 244c86.2 2.5 124.2 38.8 127.9 109-3.6 50.9-24.6 82.1-77.1 93.6-0.7 0.2-0.8 1.2-0.1 1.4 47.5 13.9 63.8 43.1 65.1 87.9-5 62.8-37 95.4-112.1 97.9-71.1 0-114.9-31.1-131.9-93.3-0.7-2.4 0.8-4.9 3.3-5.5l46.3-10.8c2.5-0.6 5 1 5.5 3.6 8.3 42.5 32.6 63.7 73 63.7 41.9-1.3 63.5-21.6 64.7-61-1.2-43.1-30.2-64.7-86.8-64.7h-23.9c-2.1 0-3.8-1.7-3.8-3.8v-36.8c0-2.1 1.7-3.8 3.8-3.8h31.3c60.3 0 90.5-21.6 90.5-64.7-1.2-46.8-26.5-70.8-75.8-72.1-42.7 0-68.9 21.7-78.4 65.2-0.6 2.8-3.3 4.5-6.1 3.9l-48.1-10.9c-1.9-3.4-2.5-7.5-1.4-11.3 17.3-62.2 61.2-88.7 134.1-87.5z"  horiz-adv-x="1024" />
      
      <glyph glyph-name="fanhui_icon" unicode="&#59064;" d="M891.68225563 425.8247625H233.28544813l305.45977874 305.45977875c16.33388531 16.33292625 16.33388531 42.81481125 0.00191813 59.14869656-16.33388531 16.33388531-42.81673031 16.33292625-59.14965656 0L102.73907844 413.57482781h0.00096c-7.56926812-7.56926812-12.25089375-18.02521875-12.25089375-29.57482781 0-11.55632437 4.68738187-22.01803219 12.26336531-29.58634031L479.59748844-22.43131969000001c16.33292625-16.33388531 42.81481125-16.33388531 59.14677937-0.00095906 16.33388531 16.33292625 16.33388531 42.81577125 0 59.14869656l-305.45690062 305.45881969h658.39488843c23.09921906 0 41.82668156 18.72554438 41.82668157 41.8247625s-18.7274625 41.8247625-41.82668157 41.8247625z"  horiz-adv-x="1024" />
      
      <glyph glyph-name="a-yousuojin3x" unicode="&#58909;" d="M97.74775309 96.78510836999999a27.61681602 27.61681602 0 0 1-27.61681603-27.61681602v-33.14017976a27.61681602 27.61681602 0 0 1 27.61681603-27.61681602h828.50449382a27.61681602 27.61681602 0 0 1 27.61681603 27.61681602v33.14017976a27.61681602 27.61681602 0 0 1-27.61681603 27.61681602h-828.50449382z m386.63543089 220.93453213a27.61681602 27.61681602 0 0 1-27.61681733-27.61681603v-33.14017977a27.61681602 27.61681602 0 0 1 27.61681733-27.61681732h441.86906293a27.61681602 27.61681602 0 0 1 27.61681603 27.61681732v33.14017977a27.61681602 27.61681602 0 0 1-27.61681603 27.61681603h-441.86906293zM86.70102693 536.9971636299999a16.57008987 16.57008987 0 0 1-16.57008987-16.57008988v-272.8541475a16.57008987 16.57008987 0 0 1 25.07606848-14.19504323l219.4984581 131.67698046a22.0934536 22.0934536 0 0 1 0 37.89027304L95.20700554 534.62211698A16.57008987 16.57008987 0 0 1 86.70102693 536.9971636299999z m397.68215705 1.65700899a27.61681602 27.61681602 0 0 1-27.61681733-27.61681732v-33.14017977a27.61681602 27.61681602 0 0 1 27.61681733-27.61681603h441.86906293a27.61681602 27.61681602 0 0 1 27.61681603 27.61681603v33.14017977a27.61681602 27.61681602 0 0 1-27.61681603 27.61681732h-441.86906293z m-386.63543089 220.93453081a27.61681602 27.61681602 0 0 1-27.61681603-27.61681602v-33.14017976a27.61681602 27.61681602 0 0 1 27.61681603-27.61681602h828.50449382a27.61681602 27.61681602 0 0 1 27.61681603 27.61681602v33.14017976a27.61681602 27.61681602 0 0 1-27.61681603 27.61681602h-828.50449382z"  horiz-adv-x="1024" />
      
      <glyph glyph-name="a-zuosuojin3x" unicode="&#58910;" d="M926.25224691 96.78510836999999a27.61681602 27.61681602 0 0 0 27.61681603-27.61681602v-33.14017976a27.61681602 27.61681602 0 0 0-27.61681603-27.61681602h-828.50449382a27.61681602 27.61681602 0 0 0-27.61681603 27.61681602v33.14017976a27.61681602 27.61681602 0 0 0 27.61681603 27.61681602h828.50449382z m-386.63543089 220.93453213a27.61681602 27.61681602 0 0 0 27.61681733-27.61681603v-33.14017977a27.61681602 27.61681602 0 0 0-27.61681733-27.61681732h-441.86906293a27.61681602 27.61681602 0 0 0-27.61681603 27.61681732v33.14017977a27.61681602 27.61681602 0 0 0 27.61681603 27.61681603h441.86906293z m397.68215705 219.27752313a16.57008987 16.57008987 0 0 0 16.57008987-16.57008988v-272.8541475a16.57008987 16.57008987 0 0 0-25.07606848-14.19504323l-219.4984581 131.67698046a22.0934536 22.0934536 0 0 0 0 37.89027304l219.4984581 131.67698046a16.57008987 16.57008987 0 0 0 8.50597861 2.37504665z m-397.68215705 1.65700899a27.61681602 27.61681602 0 0 0 27.61681733-27.61681732v-33.14017977a27.61681602 27.61681602 0 0 0-27.61681733-27.61681603h-441.86906293a27.61681602 27.61681602 0 0 0-27.61681603 27.61681603v33.14017977a27.61681602 27.61681602 0 0 0 27.61681603 27.61681732h441.86906293z m386.63543089 220.93453081a27.61681602 27.61681602 0 0 0 27.61681603-27.61681602v-33.14017976a27.61681602 27.61681602 0 0 0-27.61681603-27.61681602h-828.50449382a27.61681602 27.61681602 0 0 0-27.61681603 27.61681602v33.14017976a27.61681602 27.61681602 0 0 0 27.61681603 27.61681602h828.50449382z"  horiz-adv-x="1024" />
      
      <glyph glyph-name="duoyun-1" unicode="&#59044;" d="M619.63377778 653.81262222c0 31.78951111 5.95057778 62.20231111 16.7936 90.15751111C543.11822222 707.84568889 476.95644445 617.24444445 476.95644445 511.19217778c0-137.81902222 111.7184-249.53742222 249.53742222-249.53742223 106.01813333 0 196.59662222 66.11626667 232.74382222 159.37991112-27.94382222-10.82026667-58.31111111-16.75946667-90.06648889-16.75946667-137.81902222 0-249.53742222 111.7184-249.53742222 249.53742222zM675.36213333 393.29564445h-24.18915555c-11.94666667 43.71342222-36.54542222 83.28533333-71.02008889 113.59573333-42.496 37.35324445-97.09795555 57.92426667-153.72515556 57.92426667-56.91164445 0-111.70702222-20.75306667-154.29404444-58.4248889-35.97653333-31.82364445-61.07591111-73.71662222-72.192-119.8535111-78.58631111-21.93635555-135.17937778-94.4128-135.17937778-177.8688 0-101.80835555 82.83022222-184.63857778 184.63857778-184.63857778h425.96124444c101.80835555 0 184.63857778 82.83022222 184.63857778 184.6272 0 101.80835555-82.83022222 184.63857778-184.63857778 184.63857778z"  horiz-adv-x="1024" />
      
      <glyph glyph-name="daxue" unicode="&#59045;" d="M886.05866667 612.832c-37.42933333 37.42933333-87.008 58.03733333-139.62666667 58.03733333h-30.92266667c-12.416 48.69333333-39.34933333 92.84266667-77.55733333 126.42133334-45.76 40.21333333-104.544 62.368-165.52533333 62.368-61.28 0-120.288-22.34666667-166.144-62.912-39.57333333-35.008-66.92266667-81.33333333-78.48533334-132.26666667-85.78133333-22.4-147.89333333-100.81066667-147.89333333-191.27466667 0-52.61866667 20.608-102.19733333 58.03733333-139.62666666 37.42933333-37.42933333 87.008-58.03733333 139.62666667-58.03733334h468.864c52.608 0 102.19733333 20.608 139.62666667 58.03733334 37.42933333 37.42933333 58.03733333 87.008 58.03733333 139.62666666 0 52.61866667-20.608 102.208-58.03733333 139.62666667zM843.34933333 103.48800000000006l-39.70133333 23.968 39.69066667 23.968c10.08 6.09066667 13.32266667 19.2 7.232 29.29066667-6.09066667 10.08-19.2 13.32266667-29.29066667 7.232l-37.55733333-22.67733334v43.86133334c0 11.78666667-9.54666667 21.33333333-21.33333334 21.33333333s-21.33333333-9.54666667-21.33333333-21.33333333v-43.872l-37.55733333 22.67733333c-10.08 6.09066667-23.2 2.85866667-29.29066667-7.232-6.09066667-10.09066667-2.85866667-23.2 7.232-29.29066667l39.66933333-23.95733333-39.68-23.95733333c-10.08-6.09066667-13.32266667-19.2-7.232-29.29066667 4.01066667-6.64533333 11.06133333-10.31466667 18.28266667-10.31466667 3.75466667 0 7.56266667 0.992 11.008 3.08266667l37.568 22.688v-43.904c0-11.78666667 9.54666667-21.33333333 21.33333333-21.33333333s21.33333333 9.55733333 21.33333334 21.33333333v43.89333333l37.568-22.688c3.44533333-2.08 7.25333333-3.072 11.008-3.072 7.22133333 0 14.272 3.66933333 18.28266666 10.304 6.09066667 10.09066667 2.85866667 23.18933333-7.232 29.29066667zM592.96-12.59733332999997l-39.70133333 23.968 39.69066666 23.968c10.08 6.09066667 13.32266667 19.2 7.232 29.29066666-6.09066667 10.08-19.2 13.32266667-29.29066666 7.232L533.33333333 49.17333332999999v43.86133334c0 11.78666667-9.54666667 21.33333333-21.33333333 21.33333333s-21.33333333-9.54666667-21.33333333-21.33333333v-43.872l-37.55733334 22.67733333c-10.09066667 6.09066667-23.2 2.848-29.29066666-7.232-6.09066667-10.09066667-2.85866667-23.2 7.232-29.29066667l39.66933333-23.95733333-39.68-23.95733333c-10.08-6.09066667-13.32266667-19.2-7.232-29.29066667 4.01066667-6.64533333 11.06133333-10.31466667 18.28266667-10.31466667 3.75466667 0 7.56266667 0.992 11.008 3.08266667L490.66666667-26.432000000000016v-43.904c0-11.78666667 9.54666667-21.33333333 21.33333333-21.33333333s21.33333333 9.55733333 21.33333333 21.33333333v43.89333333l37.568-22.688c3.44533333-2.08 7.25333333-3.072 11.008-3.072 7.22133333 0 14.272 3.66933333 18.28266667 10.304 6.09066667 10.10133333 2.85866667 23.21066667-7.232 29.30133334zM342.57066667 75.01866667000002l-39.70133334 23.968 39.69066667 23.968c10.08 6.09066667 13.32266667 19.2 7.232 29.29066666-6.09066667 10.08-19.2 13.32266667-29.29066667 7.232l-37.55733333-22.67733333v43.86133333c0 11.78666667-9.54666667 21.33333333-21.33333333 21.33333334s-21.33333333-9.54666667-21.33333334-21.33333334v-43.872l-37.55733333 22.67733334c-10.09066667 6.09066667-23.2 2.848-29.29066667-7.232-6.09066667-10.09066667-2.85866667-23.2 7.232-29.29066667l39.66933334-23.95733333-39.68-23.95733334c-10.08-6.09066667-13.32266667-19.2-7.232-29.29066666 4.01066667-6.64533333 11.06133333-10.31466667 18.28266666-10.31466667 3.75466667 0 7.56266667 0.992 11.008 3.08266667l37.568 22.688v-43.904c0-11.78666667 9.54666667-21.33333333 21.33333334-21.33333334 11.776 0 21.33333333 9.55733333 21.33333333 21.33333334v43.89333333l37.568-22.688c3.44533333-2.08 7.25333333-3.072 11.008-3.072 7.22133333 0 14.272 3.66933333 18.28266667 10.304 6.09066667 10.09066667 2.85866667 23.18933333-7.232 29.29066667z"  horiz-adv-x="1024" />
      
      <glyph glyph-name="dayu" unicode="&#59046;" d="M862.68 599.1c-35.09 35.09-81.57 54.41-130.9 54.41h-28.99c-11.64 45.65-36.89 87.04-72.71 118.52-42.9 37.7-98.01 58.47-155.18 58.47-57.45 0-112.77-20.95-155.76-58.98-37.1-32.82-62.74-76.25-73.58-124-80.42-21-138.65-94.51-138.65-179.32 0-49.33 19.32-95.81 54.41-130.9 35.09-35.09 81.57-54.41 130.9-54.41h439.56c49.32 0 95.81 19.32 130.9 54.41s54.41 81.57 54.41 130.9c0 49.33-19.32 95.81-54.41 130.9zM314.59 102.40999999999997l-0.41 1.24a59.29 59.29 0 0 1-2.56 6.22c-1.27 2.65-2.56 5.3-3.75 7.99l-49.13 110.69c-0.71 1.6-2.99 1.6-3.7 0L205.9 117.86000000000001c-1.19-2.69-2.48-5.34-3.75-7.99-0.96-2.01-1.82-4.09-2.56-6.22l-0.41-1.24a60.428 60.428 0 0 1-2.91-18.59c0-3.66 0.32-7.24 0.94-10.72 5.06-28.36 29.85-49.89 59.66-49.89 29.82 0 54.6 21.53 59.66 49.89 0.62 3.48 0.94 7.06 0.94 10.72 0.02 6.49-1 12.73-2.88 18.59zM555.27 16.700000000000045l-0.41 1.24a59.29 59.29 0 0 1-2.56 6.22c-1.27 2.65-2.56 5.3-3.75 7.99l-49.13 110.69c-0.71 1.6-2.99 1.6-3.7 0l-49.13-110.69c-1.19-2.69-2.48-5.34-3.75-7.99-0.96-2.01-1.82-4.09-2.56-6.22l-0.41-1.24a60.428 60.428 0 0 1-2.91-18.59c0-3.66 0.32-7.24 0.94-10.72 5.06-28.36 29.85-49.89 59.66-49.89 29.82 0 54.6 21.53 59.66 49.89 0.62 3.48 0.94 7.06 0.94 10.72 0.02 6.49-1 12.74-2.89 18.59zM797.54 125.77999999999997l-0.41 1.24a59.29 59.29 0 0 1-2.56 6.22c-1.27 2.65-2.56 5.3-3.75 7.99l-49.13 110.69c-0.71 1.6-2.99 1.6-3.7 0l-49.13-110.69c-1.19-2.69-2.48-5.34-3.75-7.99-0.96-2.01-1.82-4.09-2.56-6.22l-0.41-1.24a60.428 60.428 0 0 1-2.91-18.59c0-3.66 0.32-7.24 0.94-10.72 5.06-28.36 29.85-49.89 59.66-49.89 29.82 0 54.6 21.53 59.66 49.89 0.62 3.48 0.94 7.06 0.94 10.72 0.01 6.49-1.01 12.74-2.89 18.59z"  horiz-adv-x="1024" />
      
      <glyph glyph-name="feng" unicode="&#59047;" d="M656.27 259.74H96.33c-16.57 0-30-13.43-30-30s13.43-30 30-30h559.94c45.8 0 83.06-37.26 83.06-83.06s-37.26-83.06-83.06-83.06-83.06 37.26-83.06 83.06c0 16.57-13.43 30-30 30s-30-13.43-30-30c0-78.88 64.18-143.06 143.06-143.06 78.89 0 143.06 64.17 143.06 143.06s-64.18 143.06-143.06 143.06zM791.97 684.2c-91.37 0-165.7-74.33-165.7-165.7 0-16.57 13.43-30 30-30s30 13.43 30 30c0 58.28 47.42 105.7 105.7 105.7s105.7-47.42 105.7-105.7-47.42-105.7-105.7-105.7H96.33c-16.57 0-30-13.43-30-30s13.43-30 30-30h695.64c91.37 0 165.7 74.33 165.7 165.7s-74.33 165.7-165.7 165.7zM96.33 508.26h344.83c78.88 0 143.06 64.18 143.06 143.06s-64.18 143.06-143.06 143.06S298.1 730.2 298.1 651.32c0-16.57 13.43-30 30-30s30 13.43 30 30c0 45.8 37.26 83.06 83.06 83.06s83.06-37.26 83.06-83.06-37.26-83.06-83.06-83.06H96.33c-16.57 0-30-13.43-30-30s13.43-30 30-30z"  horiz-adv-x="1024" />
      
      <glyph glyph-name="duoyun-3" unicode="&#59048;" d="M837.14 559.82c-8.52 38.91-29.25 74.32-59.41 101-34.53 30.55-78.96 47.37-125.11 47.37-45.92 0-90.18-16.67-124.64-46.96-29.23-25.69-49.7-59.61-58.84-96.97h-25.41c-39.49 0-76.7-15.47-104.79-43.56-28.09-28.09-43.56-65.31-43.56-104.79 0-39.49 15.47-76.7 43.56-104.79 28.09-28.09 65.31-43.56 104.79-43.56h357.44c39.49 0 76.7 15.47 104.79 43.56s43.56 65.3 43.56 104.79c0 68.38-47.29 127.58-112.38 143.91zM897.86 404.32c-38.23 38.23-88.87 59.28-142.61 59.28h-34.58c-12.45 50.84-40.31 97-80.09 131.97-46.9 41.22-107.14 63.92-169.64 63.92-62.8 0-123.27-22.89-170.27-64.47-41.05-36.32-69.26-84.51-80.86-137.46-88.59-22.21-152.95-102.79-152.95-195.85 0-53.73 21.06-104.38 59.28-142.61 38.22-38.23 88.87-59.28 142.61-59.28h486.5c53.73 0 104.38 21.05 142.61 59.28 38.23 38.22 59.28 88.87 59.28 142.61 0 53.72-21.05 104.38-59.28 142.61z"  horiz-adv-x="1024" />
      
      <glyph glyph-name="duoyun-2" unicode="&#59049;" d="M592.11 357.29m-183.57 0a183.57 183.57 0 1 1 367.14 0 183.57 183.57 0 1 1-367.14 0ZM601.52 351.45h-21.26c-10.5 38.42-32.12 73.2-62.42 99.84-37.35 32.83-85.34 50.91-135.11 50.91-50.02 0-98.18-18.24-135.61-51.35-31.62-27.97-53.68-64.79-63.45-105.34-69.07-19.28-118.81-82.98-118.81-156.33 0-89.48 72.8-162.28 162.28-162.28h374.38c89.48 0 162.28 72.8 162.28 162.27 0 89.48-72.8 162.28-162.28 162.28zM602.04 585.3c-16.57 0-30 13.43-30 30v95.8c0 16.57 13.43 30 30 30s30-13.43 30-30v-95.81c0-16.56-13.43-29.99-30-29.99zM833.33 122.71c-7.68 0-15.35 2.93-21.21 8.79l-28.07 28.07c-11.72 11.72-11.72 30.71 0 42.43 11.72 11.71 30.71 11.72 42.43 0l28.07-28.07c11.72-11.72 11.72-30.71 0-42.43-5.86-5.86-13.54-8.79-21.22-8.79zM428.2 526.9c-7.76 0-15.51 2.99-21.39 8.96l-57.46 58.4c-11.62 11.81-11.47 30.8 0.34 42.42 11.81 11.62 30.8 11.47 42.43-0.34l57.46-58.4c11.62-11.81 11.47-30.8-0.34-42.42-5.84-5.75-13.44-8.62-21.04-8.62zM765.59 517.55c-7.68 0-15.35 2.93-21.21 8.79-11.72 11.72-11.72 30.71 0 42.43l67.75 67.74c11.71 11.72 30.71 11.72 42.43 0s11.72-30.71 0-42.43l-67.75-67.74a29.95 29.95 0 0 0-21.22-8.79zM929.14 354h-95.81c-16.57 0-30 13.43-30 30s13.43 30 30 30h95.81c16.57 0 30-13.43 30-30s-13.43-30-30-30z"  horiz-adv-x="1024" />
      
      <glyph glyph-name="leiyujiaojia" unicode="&#59050;" d="M862.68 599.1c-35.09 35.09-81.57 54.41-130.9 54.41h-28.99c-11.64 45.65-36.89 87.04-72.71 118.52-42.9 37.7-98.01 58.47-155.18 58.47-57.45 0-112.77-20.95-155.76-58.98-37.1-32.82-62.74-76.25-73.58-124-80.42-21-138.65-94.51-138.65-179.32 0-49.33 19.32-95.81 54.41-130.9 35.09-35.09 81.57-54.41 130.9-54.41h439.56c49.32 0 95.81 19.32 130.9 54.41s54.41 81.57 54.41 130.9c0 49.33-19.32 95.81-54.41 130.9zM314.59 102.41l-0.41 1.24a59.29 59.29 0 0 1-2.56 6.22c-1.27 2.65-2.56 5.3-3.75 7.99l-49.13 110.69c-0.71 1.6-2.99 1.6-3.7 0L205.9 117.86c-1.19-2.69-2.48-5.34-3.75-7.99-0.96-2.01-1.82-4.09-2.56-6.22l-0.41-1.24a60.428 60.428 0 0 1-2.91-18.59c0-3.66 0.32-7.24 0.94-10.72 5.06-28.36 29.85-49.89 59.66-49.89 29.82 0 54.6 21.53 59.66 49.89 0.62 3.48 0.94 7.06 0.94 10.72 0.02 6.49-1 12.73-2.88 18.59zM555.27 16.7l-0.41 1.24a59.29 59.29 0 0 1-2.56 6.22c-1.27 2.65-2.56 5.3-3.75 7.99l-49.13 110.69c-0.71 1.6-2.99 1.6-3.7 0l-49.13-110.69c-1.19-2.69-2.48-5.34-3.75-7.99-0.96-2.01-1.82-4.09-2.56-6.22l-0.41-1.24a60.428 60.428 0 0 1-2.91-18.59c0-3.66 0.32-7.24 0.94-10.72 5.06-28.36 29.85-49.89 59.66-49.89 29.82 0 54.6 21.53 59.66 49.89 0.62 3.48 0.94 7.06 0.94 10.72 0.02 6.49-1 12.74-2.89 18.59zM797.54 125.78l-0.41 1.24a59.29 59.29 0 0 1-2.56 6.22c-1.27 2.65-2.56 5.3-3.75 7.99l-49.13 110.69c-0.71 1.6-2.99 1.6-3.7 0l-49.13-110.69c-1.19-2.69-2.48-5.34-3.75-7.99-0.96-2.01-1.82-4.09-2.56-6.22l-0.41-1.24a60.428 60.428 0 0 1-2.91-18.59c0-3.66 0.32-7.24 0.94-10.72 5.06-28.36 29.85-49.89 59.66-49.89 29.82 0 54.6 21.53 59.66 49.89 0.62 3.48 0.94 7.06 0.94 10.72 0.01 6.49-1.01 12.74-2.89 18.59zM512.1 703.72L384.07 447.54l127.26-63.92-63.24-191.75 192.03 255.67-128.79 63.92z"  horiz-adv-x="1024" />
      
      </font>
</defs>
</svg>
